<svg width="91" height="90" viewBox="0 0 91 90" fill="none" xmlns="http://www.w3.org/2000/svg">
<path d="M30.0308 20.3735C30.0155 19.5444 29.2969 18.9006 28.5045 18.8999L1.97395 19.3708C1.57624 19.3782 1.19758 19.543 0.920723 19.8293C-0.141984 43.3155 7.33825 67.5007 18.2607 88.3094C18.6585 89.0441 19.5817 89.3032 20.2955 88.9121L43.6143 76.25C44.3424 75.8545 44.6126 74.9441 44.2171 74.2161C35.2698 57.738 30.3641 39.1199 30.0308 20.3735ZM20.1893 85.5561C9.89948 66.1184 4.15803 44.3289 3.53474 22.3437L27.0675 21.9263C27.6219 40.1453 32.3782 58.1973 40.8729 74.3245L20.1893 85.5561Z" fill="#A9B6FF" stroke="#A9B6FF" stroke-width="0.5"/>
<path d="M17.6286 43.2098C12.259 44.1226 9.27698 50.4168 11.3018 55.3663C15.6103 66.2372 30.8878 60.8458 28.3153 49.8351C27.079 45.2013 22.3769 42.2906 17.6286 43.2098ZM25.3589 53.8547C24.7787 55.7966 23.3187 57.4184 21.3566 58.0655C16.0485 59.9164 11.6593 53.0512 14.6024 48.6524C18.2716 42.9204 27.3575 47.4803 25.3589 53.8547Z" fill="#A9B6FF" stroke="#A9B6FF" stroke-width="0.5"/>
<path d="M15.1396 28.2086L16.121 28.1463C18.0026 30.49 20.3222 31.1397 22.3488 30.9002C22.529 32.6844 22.7487 34.4788 23.0058 36.2542C23.1252 37.0745 23.8935 37.6436 24.705 37.5242C25.5253 37.4056 26.0937 36.6446 25.975 35.825C25.641 33.5186 25.3715 31.1807 25.1716 28.8758C25.1135 27.8531 23.9526 27.2301 23.0365 27.6446C21.9621 28.098 19.8974 28.4561 18.0898 25.7615C17.7924 25.3184 17.2892 25.0635 16.748 25.1002L14.1003 25.2686C13.5524 25.3038 13.0676 25.6356 12.8361 26.1336C11.216 29.6192 8.76824 29.0999 8.36174 28.9827C7.37599 28.5638 6.19461 29.4337 6.32198 30.5099C6.55266 33.178 6.86467 35.877 7.24846 38.5328C7.36369 39.3568 8.14515 39.9237 8.94768 39.8028C9.76799 39.6841 10.3363 38.9232 10.2177 38.1036C9.92766 36.0989 9.6801 34.0694 9.47795 32.0479C10.964 31.9542 13.3964 31.2825 15.1396 28.2086Z" fill="#A9B6FF" stroke="#A9B6FF" stroke-width="0.5"/>
<path d="M31.7732 67.5272C29.8835 68.2912 28.1667 69.9816 27.6489 72.945L26.759 73.3646C23.7502 71.516 21.2981 72.0998 19.9482 72.7377C19.1484 70.8671 18.386 68.9709 17.674 67.079C17.3818 66.3048 16.5168 65.9145 15.7412 66.2038C14.9663 66.496 14.5744 67.361 14.8659 68.1366C15.8093 70.6408 16.8383 73.1552 17.926 75.6081C18.3339 76.6078 19.7915 76.8037 20.4499 75.9604C20.7517 75.6615 22.6443 74.0282 25.7439 76.2943C26.1876 76.619 26.7742 76.6742 27.268 76.4408L29.6696 75.3092C30.1516 75.0822 30.4775 74.6149 30.5237 74.0839C30.8071 70.8539 32.7905 70.1684 33.9477 70.0475C34.9463 69.9684 35.6676 68.8621 35.2228 67.9388C34.2854 65.8236 33.394 63.6469 32.5722 61.4679C32.28 60.6923 31.415 60.3019 30.6401 60.5934C29.8645 60.8849 29.4734 61.7506 29.7656 62.5255C30.3969 64.2028 31.07 65.8786 31.7732 67.5272Z" fill="#A9B6FF" stroke="#A9B6FF" stroke-width="0.5"/>
<path d="M89 7.49683H72.5V2.3999C72.5 1.57153 71.8284 0.899902 71 0.899902H17C16.1716 0.899902 15.5 1.57153 15.5 2.3999V14.9968C15.5 15.8252 16.1716 16.4968 17 16.4968C17.8284 16.4968 18.5 15.8252 18.5 14.9968V3.8999H69.5C69.5 7.42249 69.5 54.98 69.5 59.3999H44C42.0369 59.4308 42.0216 62.3658 44.0001 62.3999L71 62.3999C71.8284 62.3999 72.5 61.7283 72.5 60.8999V58.8022H89C89.8284 58.8022 90.5 58.1306 90.5 57.3022V8.99683C90.5 8.16846 89.8284 7.49683 89 7.49683ZM87.5 55.8022H72.5V10.4968H87.5V55.8022Z" fill="#A9B6FF" stroke="#A9B6FF" stroke-width="0.5"/>
<path d="M60.5 9.8999H35C34.1716 9.8999 33.5 10.5715 33.5 11.3999V23.3999C33.5 24.2283 34.1716 24.8999 35 24.8999H60.5C61.3284 24.8999 62 24.2283 62 23.3999V11.3999C62 10.5715 61.3284 9.8999 60.5 9.8999ZM59 21.8999H36.5V12.8999H59V21.8999Z" fill="#A9B6FF" stroke="#A9B6FF" stroke-width="0.5"/>
<path d="M63.4977 30.8999H42.4977C40.5326 30.9314 40.521 33.866 42.4978 33.8999L63.4977 33.8999C65.4628 33.8684 65.4744 30.9338 63.4977 30.8999Z" fill="#A9B6FF" stroke="#A9B6FF" stroke-width="0.5"/>
<path d="M63.4979 38.3999H51.4979C49.5299 38.4323 49.5236 41.3663 51.498 41.3999L63.4979 41.3999C65.4659 41.3675 65.4722 38.4335 63.4979 38.3999Z" fill="#A9B6FF" stroke="#A9B6FF" stroke-width="0.5"/>
</svg>
