<svg width="90" height="90" viewBox="0 0 90 90" fill="none" xmlns="http://www.w3.org/2000/svg">
<path d="M24.5448 29.3999V38.5831H14.1992V45.3253H24.5448V54.7429L40.9368 42.0709L24.5448 29.3999Z" fill="#A9B6FF"/>
<path d="M65.0162 46.9968V56.1808H75.3634V62.9218H65.0162V72.3386L48.625 59.6674L65.0162 46.9968Z" fill="#A9B6FF"/>
<path d="M69.1639 18.2859H48.1823L31.3823 0.684326H14.5551C6.85099 0.684326 0.605469 6.92993 0.605469 14.6339V58.4123C0.605469 66.1164 6.85107 72.3619 14.5551 72.3619H38.1535C38.2322 72.3619 38.3082 72.3513 38.3857 72.3494V76.0129C38.3857 83.716 44.6313 89.9625 52.3353 89.9625H75.9337C83.6377 89.9625 89.8833 83.7156 89.8833 76.0129V39.9937L69.1639 18.2859ZM14.9047 65.5523C11.0531 65.5523 7.92939 62.4295 7.92939 58.577V14.7514C7.92939 10.899 11.0522 7.77617 14.9047 7.77617H27.8079C29.7335 7.77617 31.2957 9.33713 31.2957 11.264V17.8658C31.2957 19.7914 32.8567 21.3537 34.7836 21.3537H41.7588C43.6844 21.3537 45.2467 22.9146 45.2467 24.8415V58.5791C45.2467 62.4316 42.1239 65.5544 38.2714 65.5544L14.9042 65.5538L14.9047 65.5523ZM83.0263 76.1787C83.0263 80.0322 79.9035 83.154 76.051 83.154H52.6854C48.8329 83.154 45.7101 80.0322 45.7101 76.1787V70.1287C49.5529 67.6434 52.1026 63.33 52.1026 58.4135V25.4087C52.2945 25.3925 52.4876 25.3772 52.6845 25.3772H65.5869C67.5137 25.3772 69.0747 26.9381 69.0747 28.865V35.4678C69.0747 37.3934 70.6365 38.9556 72.5625 38.9556H79.5378C81.4647 38.9556 83.0257 40.5166 83.0257 42.4435L83.025 76.1787L83.0263 76.1787Z" fill="#A9B6FF"/>
</svg>
