<svg width="72" height="93" viewBox="0 0 72 93" fill="none" xmlns="http://www.w3.org/2000/svg">
<path d="M46.993 48.3843C44.993 48.3843 43.393 49.9203 43.393 51.8403C43.393 52.2243 43.593 52.8003 43.593 53.1843L35.393 61.0563C34.993 60.8643 34.593 60.8643 33.993 60.8643C33.393 60.8643 32.793 61.0563 32.393 61.2483L27.193 56.2563C27.393 55.8723 27.593 55.2963 27.593 54.7203C27.593 52.8003 25.993 51.2643 23.993 51.2643C21.993 51.2643 20.393 52.8003 20.393 54.7203C20.393 55.1043 20.393 55.2963 20.593 55.6803L13.593 62.4003C13.193 62.2083 12.793 62.2083 12.393 62.2083C10.393 62.2083 8.79297 63.7443 8.79297 65.6643C8.79297 67.5843 10.393 69.1203 12.393 69.1203C14.393 69.1203 15.993 67.5843 15.993 65.6643C15.993 65.0883 15.793 64.7043 15.593 64.3203L22.393 57.7923C22.993 58.1763 23.593 58.1763 24.193 58.1763C24.593 58.1763 24.993 58.1763 25.193 57.9843L30.593 63.1683C30.393 63.5523 30.393 63.9363 30.393 64.1283C30.393 66.0483 31.993 67.5843 33.993 67.5843C35.993 67.5843 37.593 66.0483 37.593 64.1283C37.593 63.7443 37.393 63.1683 37.393 62.7843L45.593 54.9123C45.993 55.1043 46.393 55.1043 46.993 55.1043C48.993 55.1043 50.593 53.5683 50.593 51.6483C50.593 49.7283 48.993 48.3843 46.993 48.3843Z" fill="#A9B6FF"/>
<path d="M52.3867 0.1875V18.4275H71.3867L52.3867 0.1875Z" fill="#A9B6FF"/>
<path d="M50.3945 22.272C49.1945 22.272 48.3945 21.504 48.3945 20.352V0H6.39453C2.99453 0 0.394531 2.496 0.394531 5.76V86.4C0.394531 89.664 2.99453 92.16 6.39453 92.16H65.7945C69.1945 92.16 71.7945 89.664 71.7945 86.4V22.272H50.3945ZM67.5945 86.4C67.5945 87.552 66.7945 88.32 65.5945 88.32H6.39453C5.19453 88.32 4.39453 87.552 4.39453 86.4V5.76C4.39453 4.608 5.19453 3.84 6.39453 3.84H44.3945V20.352C44.3945 23.616 46.9945 26.112 50.3945 26.112H67.5945V86.4Z" fill="#A9B6FF"/>
<path d="M13.6 36.8625H9V45.5025H13.6V36.8625Z" fill="#A9B6FF"/>
<path d="M21.5883 30.5249H16.9883V45.5009H21.5883V30.5249Z" fill="#A9B6FF"/>
<path d="M29.2016 33.6001H24.6016V45.5041H29.2016V33.6001Z" fill="#A9B6FF"/>
<path d="M44.9867 30.5249H40.3867V45.5009H44.9867V30.5249Z" fill="#A9B6FF"/>
<path d="M37.1898 27.45H32.5898V45.498H37.1898V27.45Z" fill="#A9B6FF"/>
<path d="M9.60156 74.8763C9.60156 76.0283 10.4016 76.7963 11.6016 76.7963H60.4016C61.6016 76.7963 62.4016 76.0283 62.4016 74.8763C62.4016 73.7243 61.6016 72.9563 60.4016 72.9563H11.6016C10.4016 72.9563 9.60156 73.7243 9.60156 74.8763Z" fill="#A9B6FF"/>
<path d="M40.4016 79.6782H11.6016C10.4016 79.6782 9.60156 80.4462 9.60156 81.5982C9.60156 82.7502 10.4016 83.5182 11.6016 83.5182H40.4016C41.6016 83.5182 42.4016 82.7502 42.4016 81.5982C42.4016 80.6382 41.6016 79.6782 40.4016 79.6782Z" fill="#A9B6FF"/>
</svg>
