<svg width="93" height="76" viewBox="0 0 93 76" fill="none" xmlns="http://www.w3.org/2000/svg">
<path d="M59.7008 0.199951H32.5508C20.4008 0.199951 10.3508 10.1 10.3508 22.4V58.85L6.45078 54.95C5.70078 54.2 4.80078 53.8999 3.90078 53.8999C3.00078 53.8999 2.10078 54.2 1.35078 54.95C0.600781 55.7 0.300781 56.6 0.300781 57.5C0.300781 58.4 0.750781 59.3 1.35078 60.05L9.90078 68.6C10.9508 69.65 12.4508 70.25 13.9508 70.25C15.4508 70.25 16.9508 69.65 18.0008 68.6L26.5508 60.05C27.3008 59.3 27.6008 58.4 27.6008 57.5C27.6008 56.6 27.1508 55.7 26.5508 54.95C25.8008 54.2 24.9008 53.8999 24.0008 53.8999C23.1008 53.8999 22.2008 54.35 21.4508 54.95L17.5508 58.85V22.4C17.5508 14.15 24.3008 7.39995 32.5508 7.39995H59.8508C61.8008 7.39995 63.4508 5.74995 63.4508 3.79995C63.4508 1.84995 61.8008 0.199951 59.7008 0.199951Z" fill="#A9B6FF"/>
<path d="M82.6492 17.15L86.5492 21.05C87.8992 22.4 90.2992 22.4 91.6492 21.05C92.3992 20.3 92.6992 19.4 92.6992 18.5C92.6992 17.6 92.2492 16.7 91.6492 15.95L83.0992 7.4C82.0492 6.35 80.5492 5.75 79.0492 5.75C77.5492 5.75 76.0492 6.35 74.9992 7.4L66.4492 15.95C65.6992 16.7 65.3992 17.6 65.3992 18.5C65.3992 19.4 65.8492 20.3 66.4492 21.05C67.1992 21.8 68.0992 22.1 68.9992 22.1C69.8992 22.1 70.7992 21.65 71.5492 21.05L75.4492 17.15V53.6C75.4492 61.85 68.6992 68.6 60.4492 68.6H33.2992C31.3492 68.6 29.6992 70.25 29.6992 72.2C29.6992 74.15 31.3492 75.8 33.2992 75.8H60.5992C72.7492 75.8 82.7992 65.9 82.7992 53.6V17.15H82.6492Z" fill="#A9B6FF"/>
<path d="M52.6549 58.85C57.4549 57.35 60.1549 54.35 60.7549 50C61.5049 44.75 59.8549 40.85 55.9549 38.45C54.6049 37.55 52.9549 36.95 51.4549 36.2C50.7049 35.9 49.9549 35.45 49.2049 35.15C48.7549 34.85 48.3049 34.7 47.7049 34.4C46.3549 33.8 45.1549 33.2 43.8049 32.45C42.0049 31.25 41.2549 28.7 42.1549 26.15C42.9049 24.05 44.2549 23.15 46.9549 23.15C49.5049 23.15 51.3049 24.35 52.0549 26.6C52.3549 27.2 52.3549 27.95 52.5049 28.7V28.85C52.5049 29.15 52.6549 29.45 52.6549 29.6H60.6049C60.9049 27.35 60.3049 24.65 59.1049 22.7C57.3049 19.7 54.6049 17.9 50.2549 17L49.6549 16.85V13.1H45.1549V16.55L44.5549 16.7C44.1049 16.85 43.6549 17 43.2049 17.15C41.8549 17.6 40.6549 17.9 39.6049 18.5C36.1549 20.3 33.9049 23.6 33.6049 27.65C33.3049 31.55 34.9549 35.15 37.9549 37.4C39.6049 38.6 41.4049 39.35 43.2049 40.1C43.9549 40.4 44.8549 40.85 45.6049 41.15C46.0549 41.45 46.5049 41.6 46.9549 41.75L47.2549 41.9C48.4549 42.35 49.5049 42.95 50.4049 43.55C52.3549 44.75 53.1049 47.3 52.2049 49.85C51.6049 51.95 49.9549 53 47.4049 53.15C46.8049 53.15 46.2049 53.15 45.6049 53.15C42.6049 53 40.6549 51.05 40.2049 47.9C40.2049 47.75 40.2049 47.6 40.2049 47.3L40.0549 46.4H32.1049C31.5049 53.15 35.2549 57.35 43.8049 59.3L44.4049 59.45V62.6H48.9049V59.45L50.1049 59.15C51.1549 59.3 51.9049 59.15 52.6549 58.85Z" fill="#A9B6FF"/>
</svg>
