<svg width="83" height="78" viewBox="0 0 83 78" fill="none" xmlns="http://www.w3.org/2000/svg">
<path d="M80.0946 57.9313H71.5698V12.5425C71.5698 9.38182 70.3169 6.35003 68.0855 4.11149C65.8542 1.87296 62.8265 0.610261 59.6658 0.600098H11.9346C8.76727 0.600098 5.72967 1.85831 3.49004 4.09795C1.2504 6.33758 -0.0078125 9.37518 -0.0078125 12.5425V18.1489C-0.0078125 18.6581 0.194473 19.1465 0.554542 19.5065C0.914612 19.8666 1.40297 20.0689 1.91219 20.0689H15.621V65.4577C15.621 68.625 16.8792 71.6626 19.1188 73.9023C21.3585 76.1419 24.3961 77.4001 27.5634 77.4001H70.0722C73.2395 77.4001 76.2771 76.1419 78.5167 73.9023C80.7564 71.6626 82.0146 68.625 82.0146 65.4577V59.8513C82.0146 59.3421 81.8123 58.8537 81.4522 58.4937C81.0922 58.1336 80.6038 57.9313 80.0946 57.9313ZM15.621 16.2289H3.83219V12.3889C3.87242 10.2667 4.7438 8.24511 6.25895 6.75867C7.77411 5.27224 9.81205 4.43972 11.9346 4.4401H15.7746L15.621 16.2289ZM27.9858 73.5601H27.5634C25.4145 73.5601 23.3536 72.7065 21.8341 71.187C20.3146 69.6675 19.461 67.6066 19.461 65.4577V4.4401H59.6658C61.8147 4.4401 63.8756 5.29374 65.3951 6.81324C66.9146 8.33273 67.7682 10.3936 67.7682 12.5425V57.9313H38.3922C37.883 57.9313 37.3946 58.1336 37.0345 58.4937C36.6745 58.8537 36.4722 59.3421 36.4722 59.8513V65.4961C36.4621 67.6317 35.6093 69.6769 34.0991 71.187C32.589 72.6972 30.5438 73.55 28.4082 73.5601H27.9858ZM78.1746 65.4577C78.1746 67.6066 77.3209 69.6675 75.8015 71.187C74.282 72.7065 72.2211 73.5601 70.0722 73.5601H37.0866C39.1513 71.3667 40.3045 68.47 40.3122 65.4577V61.6177H78.1746V65.4577Z" fill="#A9B6FF"/>
<path d="M56.6268 14.8463H25.3692C24.86 14.8463 24.3716 14.6441 24.0116 14.284C23.6515 13.9239 23.4492 13.4356 23.4492 12.9263C23.4492 12.4171 23.6515 11.9288 24.0116 11.5687C24.3716 11.2086 24.86 11.0063 25.3692 11.0063H56.6268C57.136 11.0063 57.6244 11.2086 57.9845 11.5687C58.3445 11.9288 58.5468 12.4171 58.5468 12.9263C58.5468 13.4356 58.3445 13.9239 57.9845 14.284C57.6244 14.6441 57.136 14.8463 56.6268 14.8463Z" fill="#A9B6FF"/>
<path d="M56.6268 25.2902H25.3692C24.86 25.2902 24.3716 25.0879 24.0116 24.7278C23.6515 24.3678 23.4492 23.8794 23.4492 23.3702C23.4492 22.861 23.6515 22.3726 24.0116 22.0126C24.3716 21.6525 24.86 21.4502 25.3692 21.4502H56.6268C57.136 21.4502 57.6244 21.6525 57.9845 22.0126C58.3445 22.3726 58.5468 22.861 58.5468 23.3702C58.5468 23.8794 58.3445 24.3678 57.9845 24.7278C57.6244 25.0879 57.136 25.2902 56.6268 25.2902Z" fill="#A9B6FF"/>
<path d="M30.3801 47.4852C29.9767 47.4852 29.5772 47.4058 29.2045 47.2514C28.8318 47.097 28.4931 46.8707 28.2079 46.5855C27.9226 46.3002 27.6963 45.9616 27.5419 45.5888C27.3875 45.2161 27.3081 44.8167 27.3081 44.4132C27.3081 43.4865 27.6762 42.5977 28.3316 41.9423C28.9869 41.287 29.8757 40.9188 30.8025 40.9188H35.7945C36.3037 40.9188 36.7921 40.7166 37.1521 40.3565C37.5122 39.9964 37.7145 39.5081 37.7145 38.9988C37.7145 38.4896 37.5122 38.0013 37.1521 37.6412C36.7921 37.2811 36.3037 37.0788 35.7945 37.0788H32.4921V33.7764C32.4921 33.2672 32.2898 32.7789 31.9297 32.4188C31.5697 32.0587 31.0813 31.8564 30.5721 31.8564C30.0629 31.8564 29.5745 32.0587 29.2144 32.4188C28.8544 32.7789 28.6521 33.2672 28.6521 33.7764V37.4244C27.148 37.8767 25.8289 38.7998 24.8887 40.0579C23.9486 41.316 23.4372 42.8427 23.4297 44.4132C23.4393 45.3476 23.6361 46.2706 24.0086 47.1275C24.3811 47.9845 24.9216 48.7581 25.5983 49.4025C26.2749 50.0469 27.0739 50.5491 27.948 50.8794C28.8221 51.2096 29.7536 51.3612 30.6873 51.3252C31.5326 51.3252 32.3433 51.661 32.941 52.2588C33.5387 52.8565 33.8745 53.6672 33.8745 54.5124C33.8745 54.9613 33.7861 55.4057 33.6143 55.8203C33.4426 56.2349 33.1908 56.6117 32.8735 56.9291C32.5561 57.2464 32.1794 57.4981 31.7647 57.6699C31.3501 57.8417 30.9057 57.93 30.4569 57.93H25.3881C24.8789 57.93 24.3905 58.1323 24.0304 58.4924C23.6704 58.8525 23.4681 59.3408 23.4681 59.85C23.4681 60.3593 23.6704 60.8476 24.0304 61.2077C24.3905 61.5678 24.8789 61.77 25.3881 61.77H28.6905V65.0725C28.6905 65.5817 28.8928 66.07 29.2528 66.4301C29.6129 66.7902 30.1013 66.9925 30.6105 66.9925C31.1197 66.9925 31.6081 66.7902 31.9681 66.4301C32.3282 66.07 32.5305 65.5817 32.5305 65.0725V61.4628C34.0316 61.0308 35.3521 60.1235 36.2937 58.8773C37.2353 57.631 37.7474 56.1129 37.7529 54.5508C37.7484 53.5981 37.5524 52.656 37.1764 51.7806C36.8004 50.9052 36.2521 50.1144 35.5643 49.4552C34.8764 48.7959 34.063 48.2818 33.1723 47.9434C32.2817 47.605 31.3321 47.4492 30.3801 47.4852Z" fill="#A9B6FF"/>
<path d="M56.6233 35.6964H46.2169C45.7077 35.6964 45.2193 35.4942 44.8592 35.1341C44.4992 34.774 44.2969 34.2857 44.2969 33.7764C44.2969 33.2672 44.4992 32.7789 44.8592 32.4188C45.2193 32.0587 45.7077 31.8564 46.2169 31.8564H56.6233C57.1325 31.8564 57.6209 32.0587 57.9809 32.4188C58.341 32.7789 58.5433 33.2672 58.5433 33.7764C58.5433 34.2857 58.341 34.774 57.9809 35.1341C57.6209 35.4942 57.1325 35.6964 56.6233 35.6964Z" fill="#A9B6FF"/>
<path d="M56.6233 46.14H46.2169C45.7077 46.14 45.2193 45.9378 44.8592 45.5777C44.4992 45.2176 44.2969 44.7293 44.2969 44.22C44.2969 43.7108 44.4992 43.2225 44.8592 42.8624C45.2193 42.5023 45.7077 42.3 46.2169 42.3H56.6233C57.1325 42.3 57.6209 42.5023 57.9809 42.8624C58.341 43.2225 58.5433 43.7108 58.5433 44.22C58.5433 44.7293 58.341 45.2176 57.9809 45.5777C57.6209 45.9378 57.1325 46.14 56.6233 46.14Z" fill="#A9B6FF"/>
</svg>
