<svg width="79" height="88" viewBox="0 0 79 88" fill="none" xmlns="http://www.w3.org/2000/svg">
<path d="M2.25 80.75C2.85 80.75 3.375 80.525 3.825 80.075L6.825 77.075C7.725 76.175 7.725 74.75 6.825 73.925C5.925 73.025 4.5 73.025 3.675 73.925L0.675 76.925C-0.225 77.825 -0.225 79.25 0.675 80.075C1.125 80.525 1.65 80.75 2.25 80.75Z" fill="#A9B6FF"/>
<path d="M76.5 50.75C77.775 50.75 78.75 49.775 78.75 48.5V33.5C78.75 32.225 77.775 31.25 76.5 31.25H61.5C60.225 31.25 59.25 32.225 59.25 33.5C59.25 34.775 60.225 35.75 61.5 35.75H71.1L48.825 58.7C47.925 59.6 46.5 59.6 45.675 58.7L37.05 50.075C34.425 47.45 30.15 47.45 27.525 50.075L11.925 65.675C11.025 66.575 11.025 68 11.925 68.825C12.375 69.275 12.975 69.5 13.5 69.5C14.025 69.5 14.625 69.275 15.075 68.825L30.675 53.225C31.575 52.325 33 52.325 33.825 53.225L42.45 61.85C45.075 64.475 49.35 64.475 51.975 61.85L74.25 38.9V48.5C74.25 49.775 75.225 50.75 76.5 50.75Z" fill="#A9B6FF"/>
<path d="M74.25 64.25C74.25 62.975 73.275 62 72 62C70.725 62 69.75 62.975 69.75 64.25V77.75C69.75 80.675 67.425 83 64.5 83H16.5C15.225 83 14.25 83.975 14.25 85.25C14.25 86.525 15.225 87.5 16.5 87.5H64.5C69.9 87.5 74.25 83.15 74.25 77.75V64.25Z" fill="#A9B6FF"/>
<path d="M6.75 10.25V44C6.75 45.275 7.725 46.25 9 46.25C10.275 46.25 11.25 45.275 11.25 44V10.25C11.25 7.325 13.575 5 16.5 5H54.75V10.25C54.75 15.65 59.1 20 64.5 20H72C73.275 20 74.25 19.025 74.25 17.75C74.25 8.225 66.525 0.5 57 0.5H16.5C11.1 0.5 6.75 4.85 6.75 10.25ZM69.525 15.5H64.5C61.575 15.5 59.25 13.175 59.25 10.25V5.225C64.5 6.125 68.625 10.25 69.525 15.5Z" fill="#A9B6FF"/>
</svg>
