<svg width="1440" height="1024" viewBox="0 0 1440 1024" fill="none" xmlns="http://www.w3.org/2000/svg">
<g opacity="0.25">
<path opacity="0.0144928" fill-rule="evenodd" clip-rule="evenodd" d="M1755.76 1181.6L1553.43 1436.72C1547.61 1444.05 1537.65 1446.65 1528.99 1443.09L1227.84 1319.3C1222.72 1317.19 1218.63 1313.15 1216.48 1308.05L1034.9 878.778C1033.21 874.769 1032.8 870.333 1033.73 866.082L1121.51 467.414C1123.21 459.707 1129.08 453.601 1136.72 451.609L1411.47 379.947C1419.11 377.956 1427.22 380.414 1432.46 386.311L1703.77 691.321C1706.67 694.573 1708.48 698.644 1708.96 702.97L1760.17 1166.25C1760.78 1171.75 1759.19 1177.27 1755.76 1181.6ZM1556.56 1439.2C1549.64 1447.93 1537.77 1451.03 1527.47 1446.79L1226.31 1323C1220.22 1320.49 1215.36 1315.68 1212.79 1309.61L1031.22 880.336C1029.2 875.564 1028.71 870.282 1029.83 865.222L1117.6 466.554C1119.62 457.378 1126.62 450.11 1135.71 447.739L1410.46 376.077C1419.55 373.706 1429.21 376.632 1435.45 383.652L1706.76 688.662C1710.21 692.534 1712.36 697.38 1712.93 702.531L1764.15 1165.81C1764.87 1172.36 1762.98 1178.93 1758.89 1184.09L1556.56 1439.2Z" fill="url(#paint0_linear_0_1)"/>
<path opacity="0.0289855" fill-rule="evenodd" clip-rule="evenodd" d="M1716.96 1199.5L1502.72 1441.58C1496.53 1448.57 1486.47 1450.64 1478.03 1446.66L1185.65 1308.74C1180.64 1306.37 1176.77 1302.12 1174.88 1296.91L1017.27 862.822C1015.78 858.718 1015.6 854.252 1016.77 850.045L1124.88 460.052C1126.99 452.456 1133.17 446.68 1140.89 445.092L1417.36 388.248C1425.08 386.661 1433.04 389.53 1437.97 395.679L1691.18 711.384C1693.91 714.79 1695.51 718.962 1695.76 723.321L1722.2 1184.38C1722.52 1189.91 1720.63 1195.35 1716.96 1199.5ZM1505.71 1444.23C1498.35 1452.56 1486.37 1455.02 1476.32 1450.28L1183.95 1312.35C1177.98 1309.54 1173.37 1304.48 1171.12 1298.28L1013.51 864.187C1011.73 859.302 1011.52 853.985 1012.91 848.977L1121.03 458.983C1123.53 449.941 1130.89 443.064 1140.08 441.174L1416.56 384.33C1425.75 382.44 1435.22 385.856 1441.09 393.176L1694.3 708.881C1697.55 712.936 1699.46 717.903 1699.76 723.092L1726.19 1184.15C1726.57 1190.74 1724.33 1197.21 1719.95 1202.15L1505.71 1444.23Z" fill="url(#paint1_linear_0_1)"/>
<path opacity="0.0434783" fill-rule="evenodd" clip-rule="evenodd" d="M1677.53 1216.37L1452.17 1444.88C1445.64 1451.51 1435.52 1453.04 1427.31 1448.65L1144.36 1297.18C1139.47 1294.56 1135.81 1290.11 1134.19 1284.8L1000.55 847.216C999.271 843.027 999.333 838.544 1000.73 834.393L1128.51 454.1C1131.02 446.639 1137.49 441.206 1145.27 440.026L1422.67 397.983C1430.45 396.803 1438.24 400.075 1442.85 406.459L1677.58 731.808C1680.14 735.359 1681.53 739.623 1681.55 744.002L1683.57 1201.53C1683.6 1207.08 1681.43 1212.42 1677.53 1216.37ZM1455.02 1447.69C1447.24 1455.58 1435.19 1457.4 1425.42 1452.17L1142.47 1300.7C1136.65 1297.58 1132.29 1292.28 1130.36 1285.96L996.724 848.384C995.202 843.398 995.276 838.061 996.936 833.119L1124.72 452.826C1127.7 443.944 1135.41 437.476 1144.67 436.072L1422.07 394.028C1431.34 392.624 1440.61 396.519 1446.09 404.118L1680.82 729.468C1683.87 733.695 1685.53 738.771 1685.55 743.984L1687.57 1201.51C1687.6 1208.12 1685.02 1214.47 1680.38 1219.18L1455.02 1447.69Z" fill="url(#paint2_linear_0_1)"/>
<path opacity="0.057971" fill-rule="evenodd" clip-rule="evenodd" d="M1637.52 1232.19L1401.88 1446.63C1395.02 1452.88 1384.86 1453.88 1376.91 1449.09L1104 1284.67C1099.24 1281.8 1095.81 1277.16 1094.47 1271.77L984.729 832.004C983.666 827.742 983.965 823.254 985.586 819.171L1132.32 449.559C1135.22 442.253 1141.96 437.179 1149.78 436.409L1427.32 409.106C1435.15 408.337 1442.75 412.001 1447.01 418.602L1662.96 752.536C1665.34 756.225 1666.51 760.568 1666.3 764.956L1644.36 1217.67C1644.09 1223.23 1641.63 1228.45 1637.52 1232.19ZM1404.57 1449.59C1396.4 1457.03 1384.31 1458.22 1374.85 1452.51L1101.94 1288.1C1096.27 1284.68 1092.19 1279.16 1090.58 1272.74L980.848 832.973C979.582 827.899 979.939 822.556 981.868 817.695L1128.6 448.083C1132.06 439.385 1140.08 433.344 1149.39 432.428L1426.93 405.125C1436.25 404.209 1445.29 408.571 1450.37 416.43L1666.32 750.364C1669.16 754.755 1670.55 759.926 1670.3 765.149L1648.36 1217.87C1648.04 1224.48 1645.11 1230.69 1640.21 1235.15L1404.57 1449.59Z" fill="url(#paint3_linear_0_1)"/>
<path opacity="0.0724638" fill-rule="evenodd" clip-rule="evenodd" d="M1597 1246.94L1351.93 1446.87C1344.76 1452.72 1334.6 1453.18 1326.92 1448.01L1064.63 1271.28C1060.01 1268.17 1056.82 1263.35 1055.75 1257.89L969.775 817.231C968.931 812.906 969.469 808.426 971.313 804.423L1136.23 446.424C1139.52 439.294 1146.51 434.591 1154.35 434.232L1431.25 421.57C1439.1 421.211 1446.48 425.256 1450.4 432.057L1647.31 773.51C1649.51 777.328 1650.46 781.741 1650.01 786.125L1604.61 1232.79C1604.05 1238.33 1601.31 1243.42 1597 1246.94ZM1354.46 1449.97C1345.92 1456.93 1333.82 1457.49 1324.68 1451.33L1062.39 1274.6C1056.89 1270.89 1053.09 1265.16 1051.82 1258.65L965.849 817.997C964.845 812.849 965.485 807.514 967.68 802.75L1132.6 444.75C1136.51 436.262 1144.83 430.663 1154.16 430.237L1431.07 417.574C1440.41 417.147 1449.2 421.963 1453.87 430.059L1650.78 771.512C1653.4 776.056 1654.52 781.31 1653.99 786.529L1608.59 1233.19C1607.92 1239.79 1604.66 1245.84 1599.52 1250.04L1354.46 1449.97Z" fill="url(#paint4_linear_0_1)"/>
<path opacity="0.0869565" fill-rule="evenodd" clip-rule="evenodd" d="M1556.02 1260.6L1302.39 1445.62C1294.93 1451.06 1284.8 1451 1277.41 1445.46L1026.27 1257.07C1021.81 1253.72 1018.86 1248.74 1018.08 1243.21L955.658 802.939C955.038 798.562 955.814 794.101 957.877 790.192L1140.17 444.685C1143.83 437.752 1151.05 433.433 1158.89 433.486L1434.39 435.321C1442.23 435.373 1449.38 439.788 1452.95 446.769L1630.63 794.674C1632.64 798.611 1633.35 803.081 1632.67 807.45L1564.39 1246.85C1563.54 1252.37 1560.52 1257.31 1556.02 1260.6ZM1304.75 1448.86C1295.87 1455.33 1283.8 1455.25 1275.01 1448.66L1023.87 1260.27C1018.56 1256.28 1015.05 1250.35 1014.12 1243.78L951.698 803.501C950.959 798.29 951.884 792.98 954.339 788.325L1136.63 442.819C1140.99 434.565 1149.58 429.423 1158.91 429.486L1434.41 431.321C1443.75 431.383 1452.27 436.638 1456.51 444.95L1634.19 792.854C1636.58 797.541 1637.44 802.864 1636.63 808.064L1568.35 1247.47C1567.33 1254.03 1563.74 1259.91 1558.38 1263.83L1304.75 1448.86Z" fill="url(#paint5_linear_0_1)"/>
<path opacity="0.101449" fill-rule="evenodd" clip-rule="evenodd" d="M1514.65 1273.15L1253.34 1442.94C1245.62 1447.95 1235.54 1447.35 1228.47 1441.46L988.972 1242.09C984.679 1238.52 981.987 1233.38 981.491 1227.82L942.347 789.168C941.953 784.75 942.967 780.322 945.245 776.516L1144.06 444.331C1148.08 437.614 1155.51 433.691 1163.32 434.153L1436.67 450.305C1444.48 450.767 1451.39 455.537 1454.59 462.681L1612.9 815.969C1614.72 820.016 1615.2 824.533 1614.29 828.873L1523.76 1259.86C1522.61 1265.33 1519.33 1270.11 1514.65 1273.15ZM1255.52 1446.29C1246.33 1452.26 1234.33 1451.55 1225.91 1444.54L986.413 1245.16C981.303 1240.91 978.098 1234.8 977.507 1228.17L938.363 789.523C937.894 784.265 939.101 778.992 941.813 774.462L1140.63 442.277C1145.42 434.28 1154.25 429.61 1163.56 430.16L1436.9 446.312C1446.21 446.861 1454.43 452.54 1458.24 461.045L1616.55 814.333C1618.71 819.151 1619.29 824.529 1618.21 829.696L1527.67 1260.68C1526.31 1267.19 1522.41 1272.88 1516.83 1276.51L1255.52 1446.29Z" fill="url(#paint6_linear_0_1)"/>
<path opacity="0.115942" fill-rule="evenodd" clip-rule="evenodd" d="M1472.95 1284.6L1204.86 1438.84C1196.91 1443.42 1186.9 1442.3 1180.15 1436.08L952.766 1226.42C948.653 1222.63 946.224 1217.35 946.016 1211.76L929.808 775.955C929.643 771.508 930.894 767.125 933.381 763.435L1147.83 445.344C1152.2 438.863 1159.81 435.344 1167.57 436.213L1438.03 466.462C1445.8 467.331 1452.44 472.443 1455.27 479.73L1594.14 837.338C1595.75 841.486 1596 846.038 1594.86 850.338L1482.77 1271.79C1481.34 1277.2 1477.8 1281.81 1472.95 1284.6ZM1206.86 1442.31C1197.39 1447.76 1185.48 1446.43 1177.44 1439.02L950.054 1229.36C945.158 1224.84 942.266 1218.56 942.018 1211.91L925.811 776.103C925.614 770.81 927.103 765.591 930.064 761.199L1144.51 443.108C1149.71 435.392 1158.77 431.204 1168.02 432.238L1438.47 462.487C1447.72 463.521 1455.63 469.607 1459 478.282L1597.87 835.89C1599.79 840.828 1600.09 846.247 1598.73 851.366L1486.64 1272.82C1484.93 1279.26 1480.72 1284.74 1474.95 1288.07L1206.86 1442.31Z" fill="url(#paint7_linear_0_1)"/>
<path opacity="0.130435" fill-rule="evenodd" clip-rule="evenodd" d="M1430.99 1294.93L1157.02 1433.39C1148.85 1437.52 1138.95 1435.88 1132.55 1429.35L917.682 1210.12C913.76 1206.12 911.6 1200.71 911.682 1195.11L918.005 763.337C918.071 758.873 919.557 754.546 922.248 750.984L1151.4 447.704C1156.1 441.476 1163.88 438.372 1171.58 439.644L1438.41 483.731C1446.12 485.004 1452.48 490.443 1454.93 497.853L1574.35 858.725C1575.75 862.963 1575.76 867.538 1574.39 871.785L1441.49 1282.65C1439.77 1287.98 1435.99 1292.4 1430.99 1294.93ZM1158.82 1436.96C1149.1 1441.88 1137.32 1439.93 1129.69 1432.15L914.825 1212.92C910.156 1208.15 907.584 1201.72 907.682 1195.05L914.006 763.278C914.084 757.964 915.853 752.813 919.057 748.573L1148.21 445.292C1153.81 437.878 1163.06 434.183 1172.23 435.698L1439.07 479.785C1448.23 481.3 1455.81 487.775 1458.73 496.597L1578.14 857.468C1579.81 862.513 1579.83 867.96 1578.2 873.016L1445.3 1283.88C1443.25 1290.22 1438.74 1295.49 1432.79 1298.5L1158.82 1436.96Z" fill="url(#paint8_linear_0_1)"/>
<path opacity="0.144928" fill-rule="evenodd" clip-rule="evenodd" d="M1388.81 1304.13L1109.88 1426.63C1101.53 1430.3 1091.76 1428.16 1085.71 1421.33L883.745 1193.25C880.024 1189.05 878.14 1183.53 878.513 1177.94L906.903 751.347C907.2 746.878 908.919 742.62 911.808 739.197L1154.7 451.385C1159.73 445.429 1167.64 442.747 1175.25 444.418L1437.78 502.049C1445.39 503.72 1451.45 509.47 1453.52 516.984L1553.52 880.073C1554.71 884.391 1554.49 888.977 1552.89 893.16L1399.98 1292.41C1397.97 1297.65 1393.95 1301.87 1388.81 1304.13ZM1111.49 1430.29C1101.55 1434.66 1089.92 1432.11 1082.72 1423.98L880.75 1195.9C876.321 1190.9 874.078 1184.34 874.522 1177.67L902.912 751.081C903.266 745.761 905.312 740.693 908.751 736.618L1151.65 448.806C1157.63 441.715 1167.05 438.521 1176.11 440.511L1438.63 498.142C1447.7 500.132 1454.91 506.977 1457.38 515.922L1557.38 879.011C1558.79 884.152 1558.53 889.611 1556.62 894.59L1403.72 1293.84C1401.33 1300.08 1396.54 1305.11 1390.42 1307.79L1111.49 1430.29Z" fill="url(#paint9_linear_0_1)"/>
<path opacity="0.15942" fill-rule="evenodd" clip-rule="evenodd" d="M1346.5 1312.21L1063.51 1418.61C1055 1421.82 1045.39 1419.17 1039.72 1412.07L850.978 1175.89C847.469 1171.5 845.866 1165.89 846.529 1160.31L896.461 740.017C896.991 735.554 898.94 731.379 902.019 728.105L1157.67 456.36C1163.01 450.692 1171.03 448.438 1178.54 450.502L1436.06 521.348C1443.56 523.412 1449.31 529.456 1450.99 537.054L1531.68 901.326C1532.65 905.714 1532.19 910.299 1530.36 914.405L1358.29 1301.09C1356.01 1306.23 1351.76 1310.23 1346.5 1312.21ZM1064.92 1422.36C1054.79 1426.17 1043.35 1423.02 1036.59 1414.57L847.853 1178.39C843.675 1173.16 841.768 1166.48 842.557 1159.83L892.489 739.545C893.12 734.232 895.44 729.262 899.106 725.364L1154.76 453.62C1161.11 446.872 1170.67 444.188 1179.6 446.645L1437.12 517.491C1446.06 519.948 1452.9 527.144 1454.9 536.189L1535.58 900.461C1536.74 905.685 1536.19 911.143 1534.02 916.031L1361.95 1302.72C1359.23 1308.83 1354.17 1313.6 1347.9 1315.96L1064.92 1422.36Z" fill="url(#paint10_linear_0_1)"/>
<path opacity="0.173913" fill-rule="evenodd" clip-rule="evenodd" d="M1304.1 1319.17L1017.98 1409.39C1009.33 1412.12 999.91 1408.99 994.615 1401.63L819.397 1158.11C816.109 1153.54 814.794 1147.84 815.746 1142.29L886.641 729.377C887.404 724.932 889.578 720.85 892.841 717.737L1160.24 462.597C1165.86 457.233 1173.99 455.412 1181.36 457.862L1433.23 541.558C1440.6 544.008 1446.02 550.33 1447.31 557.991L1508.83 922.43C1509.58 926.877 1508.88 931.448 1506.83 935.466L1316.49 1308.69C1313.93 1313.7 1309.47 1317.48 1304.1 1319.17ZM1019.18 1413.21C1008.89 1416.45 997.672 1412.73 991.368 1403.97L816.151 1160.44C812.236 1155 810.67 1148.22 811.804 1141.61L882.699 728.7C883.607 723.408 886.195 718.549 890.08 714.843L1157.48 459.703C1164.17 453.318 1173.84 451.149 1182.62 454.066L1434.49 537.762C1443.27 540.679 1449.72 548.205 1451.26 557.326L1512.77 921.764C1513.67 927.059 1512.83 932.5 1510.39 937.283L1320.05 1310.5C1317.01 1316.48 1311.69 1320.97 1305.3 1322.99L1019.18 1413.21Z" fill="url(#paint11_linear_0_1)"/>
<path opacity="0.188406" fill-rule="evenodd" clip-rule="evenodd" d="M1261.67 1325.03L973.328 1399.03C964.574 1401.28 955.365 1397.67 950.464 1390.08L789.018 1139.97C785.959 1135.23 784.935 1129.46 786.176 1123.96L877.401 719.453C878.396 715.038 880.792 711.062 884.23 708.119L1162.35 470.061C1168.24 465.017 1176.43 463.632 1183.66 466.46L1429.24 562.611C1436.46 565.439 1441.54 572.02 1442.44 579.725L1484.99 943.331C1485.51 947.827 1484.57 952.372 1482.3 956.289L1274.63 1315.2C1271.8 1320.08 1267.14 1323.62 1261.67 1325.03ZM974.322 1402.9C963.901 1405.58 952.938 1401.29 947.103 1392.25L785.657 1142.14C782.016 1136.5 780.797 1129.63 782.274 1123.08L873.499 718.573C874.684 713.317 877.536 708.584 881.629 705.08L1159.75 467.023C1166.76 461.017 1176.52 459.369 1185.12 462.736L1430.69 558.886C1439.29 562.253 1445.34 570.087 1446.41 579.26L1488.96 942.866C1489.58 948.218 1488.46 953.629 1485.77 958.293L1278.09 1317.21C1274.73 1323.02 1269.17 1327.23 1262.67 1328.9L974.322 1402.9Z" fill="url(#paint12_linear_0_1)"/>
<path opacity="0.202899" fill-rule="evenodd" clip-rule="evenodd" d="M1219.29 1329.77L929.623 1387.58C920.789 1389.34 911.815 1385.27 907.318 1377.47L759.85 1121.54C757.03 1116.65 756.3 1110.82 757.826 1105.38L868.699 710.27C869.926 705.896 872.538 702.039 876.144 699.276L1163.93 478.714C1170.07 474.002 1178.31 473.057 1185.37 476.254L1424.05 584.432C1431.1 587.63 1435.82 594.45 1436.33 602.179L1460.17 963.977C1460.47 968.509 1459.29 973.016 1456.81 976.822L1232.77 1320.64C1229.69 1325.38 1224.83 1328.67 1219.29 1329.77ZM930.406 1391.5C919.889 1393.6 909.206 1388.76 903.852 1379.47L756.384 1123.54C753.027 1117.71 752.158 1110.78 753.975 1104.3L864.848 709.189C866.309 703.983 869.418 699.39 873.71 696.101L1161.49 475.539C1168.81 469.93 1178.62 468.805 1187.02 472.611L1425.7 580.789C1434.1 584.595 1439.72 592.715 1440.33 601.916L1464.16 963.714C1464.52 969.11 1463.11 974.475 1460.16 979.006L1236.12 1322.83C1232.45 1328.46 1226.66 1332.38 1220.07 1333.7L930.406 1391.5Z" fill="url(#paint13_linear_0_1)"/>
<path opacity="0.217391" fill-rule="evenodd" clip-rule="evenodd" d="M1176.99 1333.43L886.91 1375.11C878.023 1376.39 869.307 1371.87 865.222 1363.88L731.898 1102.9C729.324 1097.86 728.892 1092 730.701 1086.63L860.492 701.85C861.949 697.53 864.772 693.802 868.535 691.228L1164.92 488.514C1171.3 484.148 1179.57 483.644 1186.43 487.2L1417.63 606.949C1424.5 610.506 1428.86 617.547 1428.97 625.279L1434.4 984.316C1434.47 988.875 1433.05 993.331 1430.37 997.014L1190.97 1325.03C1187.63 1329.6 1182.59 1332.63 1176.99 1333.43ZM887.479 1379.07C876.899 1380.59 866.523 1375.21 861.66 1365.7L728.336 1104.72C725.271 1098.72 724.757 1091.74 726.911 1085.35L856.702 700.571C858.436 695.429 861.797 690.99 866.277 687.926L1162.66 485.212C1170.26 480.015 1180.1 479.414 1188.27 483.648L1419.47 603.397C1427.65 607.631 1432.83 616.014 1432.97 625.219L1438.4 984.256C1438.48 989.682 1436.8 994.988 1433.6 999.372L1194.2 1327.38C1190.23 1332.83 1184.23 1336.43 1177.56 1337.39L887.479 1379.07Z" fill="url(#paint14_linear_0_1)"/>
<path opacity="0.231884" fill-rule="evenodd" clip-rule="evenodd" d="M1134.85 1336.02L845.235 1361.68C836.322 1362.47 827.887 1357.53 824.223 1349.36L705.165 1084.11C702.844 1078.94 702.712 1073.05 704.799 1067.78L852.736 694.212C854.421 689.958 857.449 686.37 861.36 683.995L1165.27 499.416C1171.87 495.409 1180.14 495.345 1186.8 499.249L1409.97 630.086C1416.63 633.991 1420.61 641.234 1420.33 648.948L1407.7 1004.3C1407.54 1008.87 1405.89 1013.27 1403 1016.81L1149.28 1328.36C1145.7 1332.76 1140.49 1335.52 1134.85 1336.02ZM845.588 1365.67C834.977 1366.61 824.936 1360.72 820.574 1351L701.516 1085.75C698.753 1079.59 698.596 1072.58 701.08 1066.31L849.017 692.739C851.023 687.674 854.627 683.404 859.283 680.576L1163.2 495.997C1171.05 491.227 1180.89 491.151 1188.82 495.798L1411.99 626.636C1419.92 631.283 1424.66 639.906 1424.33 649.09L1411.7 1004.44C1411.51 1009.88 1409.54 1015.12 1406.1 1019.34L1152.38 1330.89C1148.12 1336.12 1141.92 1339.41 1135.2 1340L845.588 1365.67Z" fill="url(#paint15_linear_0_1)"/>
<path opacity="0.246377" fill-rule="evenodd" clip-rule="evenodd" d="M1092.91 1337.55L804.641 1347.37C795.728 1347.67 787.596 1342.31 784.359 1334L679.649 1065.24C677.587 1059.95 677.756 1054.05 680.117 1048.89L845.386 687.374C847.296 683.197 850.522 679.761 854.571 677.593L1164.94 511.376C1171.73 507.737 1179.97 508.112 1186.41 512.352L1401.02 653.768C1407.46 658.008 1411.05 665.432 1410.39 673.11L1380.1 1023.88C1379.71 1028.45 1377.82 1032.77 1374.74 1036.18L1107.75 1330.67C1103.94 1334.87 1098.59 1337.36 1092.91 1337.55ZM804.777 1351.36C794.167 1351.73 784.485 1345.35 780.631 1335.45L675.922 1066.69C673.468 1060.4 673.669 1053.37 676.479 1047.22L841.748 685.711C844.022 680.738 847.862 676.648 852.682 674.066L1163.05 507.849C1171.14 503.518 1180.95 503.965 1188.61 509.012L1403.22 650.428C1410.88 655.475 1415.16 664.314 1414.38 673.454L1384.09 1024.22C1383.62 1029.67 1381.38 1034.81 1377.7 1038.86L1110.72 1333.35C1106.18 1338.36 1099.8 1341.32 1093.05 1341.55L804.777 1351.36Z" fill="url(#paint16_linear_0_1)"/>
<path opacity="0.26087" fill-rule="evenodd" clip-rule="evenodd" d="M1051.23 1338.05L765.164 1332.23C756.279 1332.05 748.47 1326.3 745.665 1317.87L655.343 1046.37C653.547 1040.97 654.018 1035.07 656.647 1030.03L838.398 681.35C840.528 677.262 843.946 673.988 848.122 672.035L1163.86 524.342C1170.83 521.083 1179.02 521.894 1185.21 526.457L1390.78 677.917C1396.98 682.48 1400.18 690.065 1399.13 697.686L1351.63 1043.01C1351 1047.57 1348.89 1051.81 1345.62 1055.05L1066.45 1331.96C1062.41 1335.97 1056.92 1338.16 1051.23 1338.05ZM765.083 1336.23C754.506 1336.02 745.209 1329.17 741.869 1319.13L651.547 1047.63C649.41 1041.2 649.97 1034.19 653.1 1028.18L834.85 679.501C837.387 674.634 841.455 670.737 846.427 668.412L1162.16 520.719C1170.46 516.838 1180.21 517.805 1187.58 523.237L1393.16 674.697C1400.53 680.129 1404.34 689.158 1403.09 698.231L1355.59 1043.55C1354.85 1048.99 1352.33 1054.03 1348.43 1057.89L1069.27 1334.8C1064.46 1339.57 1057.92 1342.18 1051.15 1342.05L765.083 1336.23Z" fill="url(#paint17_linear_0_1)"/>
<path opacity="0.275362" fill-rule="evenodd" clip-rule="evenodd" d="M1009.87 1337.54L726.839 1316.35C718.008 1315.69 710.541 1309.56 708.172 1301.03L632.238 1027.55C630.713 1022.06 631.485 1016.19 634.377 1011.28L831.724 676.153C834.073 672.164 837.673 669.064 841.965 667.333L1161.99 538.264C1169.11 535.392 1177.23 536.636 1183.17 541.508L1379.24 702.458C1385.17 707.33 1387.98 715.054 1386.55 722.599L1322.31 1061.64C1321.45 1066.19 1319.11 1070.32 1315.66 1073.4L1025.41 1332.27C1021.16 1336.06 1015.55 1337.96 1009.87 1337.54ZM726.54 1320.34C716.027 1319.55 707.138 1312.25 704.318 1302.1L628.383 1028.62C626.569 1022.08 627.488 1015.09 630.93 1009.25L828.277 674.123C831.073 669.375 835.359 665.684 840.469 663.623L1160.49 534.555C1168.97 531.135 1178.64 532.616 1185.71 538.417L1381.78 699.366C1388.84 705.166 1392.18 714.361 1390.48 723.343L1326.24 1062.38C1325.22 1067.8 1322.43 1072.72 1318.32 1076.39L1028.08 1335.25C1023.01 1339.77 1016.33 1342.03 1009.57 1341.53L726.54 1320.34Z" fill="url(#paint18_linear_0_1)"/>
<path opacity="0.289855" fill-rule="evenodd" clip-rule="evenodd" d="M968.866 1336.05L689.693 1299.79C680.943 1298.65 673.837 1292.17 671.906 1283.56L610.32 1008.86C609.071 1003.29 610.143 997.45 613.29 992.687L825.32 671.791C827.881 667.914 831.656 664.997 836.053 663.495L1159.29 553.089C1166.54 550.611 1174.57 552.282 1180.23 557.449L1366.38 727.312C1372.04 732.479 1374.44 740.32 1372.63 747.77L1292.19 1079.73C1291.09 1084.25 1288.53 1088.28 1284.9 1091.18L984.698 1331.61C980.243 1335.18 974.527 1336.78 968.866 1336.05ZM689.178 1303.75C678.761 1302.4 670.301 1294.68 668.003 1284.43L606.416 1009.73C604.93 1003.1 606.207 996.152 609.953 990.482L821.983 669.586C825.032 664.971 829.526 661.497 834.76 659.71L1158 549.303C1166.63 546.354 1176.19 548.343 1182.93 554.494L1369.07 724.357C1375.81 730.508 1378.67 739.843 1376.52 748.712L1296.07 1080.68C1294.77 1086.05 1291.72 1090.84 1287.4 1094.3L987.199 1334.73C981.895 1338.98 975.09 1340.89 968.351 1340.01L689.178 1303.75Z" fill="url(#paint19_linear_0_1)"/>
<path opacity="0.304348" fill-rule="evenodd" clip-rule="evenodd" d="M928.274 1333.6L653.753 1282.62C645.11 1281.02 638.381 1274.2 636.891 1265.53L589.572 990.358C588.603 984.722 589.974 978.935 593.369 974.333L819.14 668.272C821.909 664.518 825.849 661.793 830.339 660.527L1155.72 568.76C1163.08 566.683 1170.99 568.775 1176.37 574.221L1352.19 752.403C1357.57 757.849 1359.55 765.787 1357.38 773.123L1261.28 1097.25C1259.96 1101.73 1257.18 1105.63 1253.39 1108.35L944.349 1330.02C939.702 1333.35 933.897 1334.65 928.274 1333.6ZM653.023 1286.55C642.733 1284.64 634.723 1276.53 632.949 1266.21L585.63 991.036C584.476 984.326 586.109 977.437 590.15 971.958L815.921 665.898C819.217 661.429 823.908 658.185 829.253 656.677L1154.63 564.91C1163.4 562.438 1172.82 564.929 1179.22 571.412L1355.04 749.594C1361.44 756.077 1363.8 765.527 1361.21 774.259L1265.12 1098.39C1263.54 1103.71 1260.23 1108.36 1255.72 1111.6L946.68 1333.27C941.148 1337.24 934.237 1338.78 927.544 1337.54L653.023 1286.55Z" fill="url(#paint20_linear_0_1)"/>
<path opacity="0.318841" fill-rule="evenodd" clip-rule="evenodd" d="M888.139 1330.24L619.038 1264.93C610.527 1262.86 604.191 1255.73 603.142 1247.03L569.973 972.112C569.287 966.424 570.954 960.703 574.589 956.274L813.136 665.601C816.107 661.98 820.204 659.457 824.774 658.432L1151.24 585.221C1158.7 583.55 1166.47 586.056 1171.54 591.765L1336.69 777.656C1341.76 783.364 1343.33 791.377 1340.79 798.579L1229.64 1114.16C1228.09 1118.57 1225.1 1122.34 1221.15 1124.87L904.41 1327.52C899.585 1330.61 893.707 1331.59 888.139 1330.24ZM618.094 1268.81C607.962 1266.35 600.42 1257.86 599.171 1247.51L566.002 972.591C565.185 965.82 567.17 959.009 571.497 953.737L810.044 663.063C813.581 658.753 818.458 655.749 823.899 654.529L1150.37 581.318C1159.24 579.329 1168.49 582.312 1174.53 589.108L1339.68 774.999C1345.71 781.795 1347.59 791.333 1344.57 799.908L1233.42 1115.48C1231.56 1120.74 1228.01 1125.23 1223.31 1128.24L906.566 1330.89C900.821 1334.57 893.824 1335.74 887.196 1334.13L618.094 1268.81Z" fill="url(#paint21_linear_0_1)"/>
<path opacity="0.333333" fill-rule="evenodd" clip-rule="evenodd" d="M848.506 1325.99L585.564 1246.77C577.21 1244.25 571.283 1236.83 570.674 1228.13L551.5 954.183C551.099 948.458 553.06 942.818 556.925 938.575L807.264 663.779C810.432 660.302 814.674 657.99 819.313 657.211L1145.83 602.414C1153.35 601.152 1160.96 604.062 1165.71 610.017L1319.86 802.992C1324.62 808.947 1325.78 817.012 1322.89 824.064L1197.31 1130.41C1195.52 1134.76 1192.33 1138.38 1188.24 1140.71L864.927 1324.15C859.935 1326.98 854.001 1327.65 848.506 1325.99ZM584.41 1250.6C574.465 1247.6 567.409 1238.77 566.683 1228.41L547.51 954.463C547.033 947.646 549.366 940.932 553.968 935.881L804.307 661.085C808.078 656.946 813.129 654.193 818.651 653.266L1145.17 598.469C1154.11 596.967 1163.17 600.432 1168.84 607.521L1322.99 800.496C1328.65 807.585 1330.03 817.186 1326.59 825.582L1201.01 1131.92C1198.88 1137.1 1195.08 1141.42 1190.21 1144.18L866.901 1327.63C860.958 1331 853.894 1331.79 847.352 1329.82L584.41 1250.6Z" fill="url(#paint22_linear_0_1)"/>
<path opacity="0.347826" fill-rule="evenodd" clip-rule="evenodd" d="M809.415 1320.89L553.344 1228.23C545.172 1225.28 539.665 1217.59 539.494 1208.9L534.125 936.632C534.011 930.883 536.26 925.339 540.347 921.294L801.479 662.806C804.835 659.484 809.214 657.39 813.907 656.862L1139.45 620.278C1147 619.429 1154.43 622.733 1158.86 628.917L1301.73 828.339C1306.16 834.523 1306.9 842.618 1303.66 849.502L1164.31 1145.97C1162.3 1150.25 1158.91 1153.72 1154.69 1155.83L825.94 1319.94C820.795 1322.51 814.822 1322.85 809.415 1320.89ZM551.983 1231.99C542.254 1228.47 535.699 1219.32 535.495 1208.98L530.125 936.711C529.99 929.867 532.668 923.267 537.533 918.451L798.665 659.963C802.66 656.008 807.873 653.515 813.46 652.887L1139 616.303C1148 615.292 1156.84 619.226 1162.11 626.587L1304.98 826.009C1310.26 833.371 1311.14 843.008 1307.28 851.204L1167.93 1147.67C1165.54 1152.76 1161.5 1156.9 1156.47 1159.41L827.726 1323.52C821.602 1326.57 814.491 1326.99 808.054 1324.66L551.983 1231.99Z" fill="url(#paint23_linear_0_1)"/>
<path opacity="0.362319" fill-rule="evenodd" clip-rule="evenodd" d="M770.906 1314.99L522.384 1209.38C514.417 1206 509.344 1198.07 509.607 1189.42L517.816 919.517C517.991 913.759 520.524 908.325 524.822 904.489L795.733 662.679C799.272 659.521 803.775 657.653 808.51 657.381L1132.07 638.754C1139.65 638.318 1146.87 642.006 1150.96 648.4L1282.3 853.622C1286.39 860.016 1286.72 868.12 1283.15 874.819L1130.7 1160.82C1128.47 1165.01 1124.89 1168.32 1120.54 1170.21L787.487 1314.92C782.203 1317.21 776.208 1317.24 770.906 1314.99ZM520.82 1213.07C511.335 1209.04 505.295 1199.6 505.609 1189.3L513.817 919.396C514.026 912.54 517.042 906.072 522.158 901.505L793.069 659.695C797.282 655.935 802.643 653.712 808.28 653.387L1131.84 634.761C1140.86 634.241 1149.46 638.632 1154.33 646.243L1285.67 851.465C1290.54 859.077 1290.93 868.726 1286.68 876.701L1134.23 1162.7C1131.58 1167.69 1127.31 1171.62 1122.13 1173.87L789.081 1318.59C782.791 1321.32 775.654 1321.35 769.342 1318.67L520.82 1213.07Z" fill="url(#paint24_linear_0_1)"/>
<path opacity="0.376812" fill-rule="evenodd" clip-rule="evenodd" d="M733.015 1308.3L492.688 1190.3C484.949 1186.5 480.319 1178.36 481.012 1169.76L502.539 902.895C503.003 897.141 505.815 891.832 510.314 888.216L789.983 663.393C793.696 660.408 798.313 658.775 803.077 658.76L1123.68 657.78C1131.25 657.757 1138.25 661.816 1142 668.401L1261.59 878.768C1265.34 885.354 1265.24 893.445 1261.35 899.943L1096.52 1174.93C1094.07 1179.02 1090.31 1182.15 1085.84 1183.81L749.605 1309.13C744.197 1311.15 738.197 1310.85 733.015 1308.3ZM490.925 1193.89C481.712 1189.37 476.2 1179.67 477.025 1169.44L498.552 902.573C499.105 895.724 502.452 889.404 507.808 885.098L787.477 660.275C791.897 656.722 797.393 654.778 803.064 654.76L1123.67 653.78C1132.68 653.753 1141.02 658.584 1145.48 666.425L1265.07 876.791C1269.53 884.631 1269.42 894.264 1264.78 902L1099.95 1176.99C1097.04 1181.85 1092.55 1185.58 1087.24 1187.56L751.002 1312.88C744.563 1315.28 737.421 1314.92 731.252 1311.9L490.925 1193.89Z" fill="url(#paint25_linear_0_1)"/>
<path opacity="0.391304" fill-rule="evenodd" clip-rule="evenodd" d="M695.779 1300.89L464.255 1171.05C456.766 1166.85 452.588 1158.52 453.706 1150.01L488.26 886.818C489.012 881.084 492.097 875.914 496.785 872.528L784.186 664.94C788.065 662.139 792.784 660.746 797.562 660.992L1114.26 677.294C1121.8 677.683 1128.56 682.099 1131.95 688.858L1239.62 903.707C1243.01 910.465 1242.5 918.522 1238.3 924.803L1061.81 1188.27C1059.15 1192.24 1055.21 1195.19 1050.64 1196.62L712.329 1302.62C706.811 1304.35 700.823 1303.72 695.779 1300.89ZM462.299 1174.54C453.383 1169.54 448.409 1159.62 449.74 1149.48L484.294 886.297C485.19 879.471 488.862 873.317 494.443 869.285L781.844 661.697C786.461 658.362 792.079 656.704 797.768 656.997L1114.46 673.299C1123.45 673.762 1131.49 679.02 1135.53 687.065L1243.2 901.915C1247.23 909.96 1246.63 919.552 1241.62 927.029L1065.14 1190.49C1061.97 1195.23 1057.28 1198.73 1051.84 1200.44L713.525 1306.43C706.955 1308.49 699.827 1307.75 693.822 1304.38L462.299 1174.54Z" fill="url(#paint26_linear_0_1)"/>
<path opacity="0.405797" fill-rule="evenodd" clip-rule="evenodd" d="M659.227 1292.8L437.08 1151.72C429.862 1147.13 426.144 1138.63 427.679 1130.22L474.936 871.339C475.977 865.639 479.327 860.622 484.193 857.475L778.298 667.31C782.333 664.701 787.142 663.555 791.921 664.063L1103.79 697.234C1111.29 698.032 1117.78 702.792 1120.81 709.703L1216.42 928.37C1219.44 935.281 1218.53 943.282 1214.02 949.331L1026.63 1200.81C1023.75 1204.67 1019.65 1207.42 1014.99 1208.61L675.69 1295.41C670.076 1296.85 664.118 1295.9 659.227 1292.8ZM434.935 1155.09C426.342 1149.64 421.916 1139.52 423.744 1129.5L471.001 870.621C472.24 863.835 476.228 857.862 482.021 854.116L776.126 663.951C780.93 660.845 786.655 659.48 792.344 660.085L1104.21 693.257C1113.14 694.206 1120.87 699.873 1124.47 708.1L1220.09 926.767C1223.68 934.995 1222.59 944.52 1217.23 951.721L1029.83 1203.2C1026.41 1207.79 1021.53 1211.07 1015.98 1212.48L676.681 1299.29C669.998 1301 662.906 1299.87 657.083 1296.17L434.935 1155.09Z" fill="url(#paint27_linear_0_1)"/>
<path opacity="0.42029" fill-rule="evenodd" clip-rule="evenodd" d="M623.389 1284.06L411.152 1132.36C404.225 1127.41 400.974 1118.77 402.919 1110.48L462.528 856.506C463.854 850.854 467.462 846.003 472.493 843.106L772.275 670.492C776.459 668.083 781.345 667.189 786.111 667.96L1092.26 717.538C1099.69 718.741 1105.91 723.828 1108.56 730.873L1192.01 952.689C1194.66 959.733 1193.34 967.658 1188.55 973.46L991.005 1212.54C987.93 1216.27 983.667 1218.82 978.932 1219.76L639.716 1287.56C634.023 1288.7 628.112 1287.43 623.389 1284.06ZM408.826 1135.62C400.58 1129.72 396.709 1119.43 399.025 1109.56L458.633 855.592C460.213 848.863 464.507 843.088 470.497 839.639L770.279 667.025C775.26 664.157 781.077 663.093 786.751 664.012L1092.9 713.589C1101.74 715.021 1109.15 721.078 1112.3 729.464L1195.76 951.28C1198.91 959.667 1197.34 969.1 1191.63 976.008L994.089 1215.09C990.428 1219.52 985.352 1222.56 979.716 1223.68L640.5 1291.49C633.722 1292.84 626.686 1291.33 621.063 1287.31L408.826 1135.62Z" fill="url(#paint28_linear_0_1)"/>
<path opacity="0.434783" fill-rule="evenodd" clip-rule="evenodd" d="M588.291 1274.72L386.46 1113.06C379.843 1107.76 377.062 1099 379.409 1090.85L450.988 842.366C452.599 836.775 456.456 832.104 461.64 829.464L766.078 674.47C770.401 672.269 775.351 671.633 780.09 672.668L1079.67 738.142C1087 739.746 1092.93 745.145 1095.2 752.302L1166.43 976.6C1168.7 983.757 1166.98 991.584 1161.91 997.126L955.001 1223.45C951.728 1227.03 947.317 1229.36 942.517 1230.06L604.434 1279.11C598.677 1279.95 592.831 1278.35 588.291 1274.72ZM383.959 1116.18C376.082 1109.87 372.771 1099.44 375.565 1089.75L447.145 841.258C449.062 834.603 453.654 829.042 459.825 825.9L764.264 670.905C769.409 668.285 775.303 667.528 780.944 668.76L1080.52 734.235C1089.26 736.143 1096.31 742.571 1099.01 751.091L1170.24 975.389C1172.95 983.91 1170.9 993.227 1164.87 999.825L957.953 1226.15C954.057 1230.41 948.805 1233.19 943.091 1234.02L605.009 1283.07C598.155 1284.06 591.195 1282.17 585.79 1277.84L383.959 1116.18Z" fill="url(#paint29_linear_0_1)"/>
<path opacity="0.449275" fill-rule="evenodd" clip-rule="evenodd" d="M553.956 1264.83L362.985 1093.87C356.697 1088.24 354.39 1079.4 357.127 1071.41L440.272 828.96C442.163 823.446 446.261 818.966 451.585 816.593L759.666 679.228C764.117 677.244 769.119 676.869 773.816 678.168L1066.01 758.987C1073.23 760.984 1078.84 766.677 1080.73 773.927L1139.71 1000.04C1141.6 1007.29 1139.48 1015 1134.16 1020.27L918.659 1233.5C915.195 1236.93 910.647 1239.05 905.794 1239.49L569.868 1270.1C564.063 1270.62 558.299 1268.72 553.956 1264.83ZM360.317 1096.85C352.831 1090.15 350.085 1079.62 353.344 1070.12L436.489 827.663C438.74 821.098 443.618 815.765 449.956 812.939L758.037 675.575C763.336 673.213 769.291 672.766 774.883 674.313L1067.08 755.131C1075.67 757.509 1082.35 764.287 1084.6 772.917L1143.58 999.031C1145.83 1007.66 1143.31 1016.84 1136.97 1023.11L921.473 1236.35C917.349 1240.43 911.935 1242.95 906.157 1243.47L570.231 1274.08C563.32 1274.71 556.459 1272.44 551.288 1267.81L360.317 1096.85Z" fill="url(#paint30_linear_0_1)"/>
<path opacity="0.463768" fill-rule="evenodd" clip-rule="evenodd" d="M520.406 1254.44L340.708 1074.87C334.765 1068.93 332.933 1060.03 336.051 1052.22L430.33 816.33C432.498 810.907 436.827 806.631 442.277 804.53L753 684.749C757.569 682.988 762.61 682.878 767.251 684.44L1051.28 780.009C1058.37 782.392 1063.65 788.362 1065.16 795.683L1111.88 1022.95C1113.39 1030.27 1110.89 1037.84 1105.32 1042.83L882.031 1242.7C878.383 1245.97 873.708 1247.86 868.815 1248.04L536.039 1260.57C530.202 1260.79 524.538 1258.56 520.406 1254.44ZM337.88 1077.7C330.805 1070.63 328.625 1060.03 332.337 1050.74L426.616 814.846C429.196 808.389 434.35 803.298 440.838 800.797L751.562 681.017C757.001 678.92 763.001 678.79 768.526 680.649L1052.56 776.217C1060.99 779.055 1067.28 786.161 1069.08 794.877L1115.8 1022.14C1117.59 1030.86 1114.62 1039.87 1107.99 1045.81L884.699 1245.68C880.356 1249.57 874.79 1251.82 868.965 1252.04L536.19 1264.56C529.241 1264.82 522.497 1262.18 517.578 1257.26L337.88 1077.7Z" fill="url(#paint31_linear_0_1)"/>
<path opacity="0.478261" fill-rule="evenodd" clip-rule="evenodd" d="M487.657 1243.59L319.602 1056.13C314.02 1049.9 312.664 1040.95 316.15 1033.35L421.11 804.513C423.55 799.193 428.1 795.132 433.663 793.311L746.042 691.011C750.719 689.48 755.784 689.639 760.355 691.461L1035.5 801.148C1042.42 803.909 1047.37 810.136 1048.48 817.508L1083 1045.27C1084.12 1052.64 1081.25 1060.06 1075.45 1064.75L845.165 1251.04C841.34 1254.13 836.549 1255.78 831.629 1255.71L502.965 1250.57C497.113 1250.47 491.564 1247.94 487.657 1243.59ZM316.624 1058.8C309.978 1051.38 308.364 1040.73 312.515 1031.68L417.474 802.845C420.379 796.512 425.796 791.678 432.418 789.509L744.798 687.21C750.364 685.387 756.395 685.576 761.836 687.746L1036.98 797.432C1045.22 800.719 1051.11 808.132 1052.44 816.908L1086.96 1044.67C1088.29 1053.45 1084.86 1062.27 1077.96 1067.86L847.681 1254.15C843.127 1257.83 837.423 1259.8 831.566 1259.71L502.903 1254.56C495.935 1254.46 489.33 1251.44 484.679 1246.26L316.624 1058.8Z" fill="url(#paint32_linear_0_1)"/>
<path opacity="0.492754" fill-rule="evenodd" clip-rule="evenodd" d="M455.726 1232.33L299.641 1037.69C294.434 1031.2 293.553 1022.24 297.395 1014.86L412.561 793.541C415.268 788.338 420.028 784.505 425.689 782.968L738.757 697.993C743.529 696.698 748.606 697.128 753.092 699.208L1018.65 822.344C1025.4 825.473 1029.99 831.938 1030.72 839.34L1053.11 1066.95C1053.84 1074.36 1050.59 1081.59 1044.59 1085.97L808.111 1258.5C804.116 1261.41 799.221 1262.82 794.288 1262.48L470.662 1240.14C464.811 1239.74 459.395 1236.9 455.726 1232.33ZM296.52 1040.19C290.322 1032.47 289.273 1021.8 293.846 1013.01L409.012 791.695C412.236 785.501 417.902 780.937 424.641 779.108L737.709 694.133C743.391 692.591 749.434 693.103 754.774 695.579L1020.33 818.715C1028.37 822.44 1033.83 830.136 1034.7 838.948L1057.09 1066.56C1057.96 1075.37 1054.1 1083.99 1046.94 1089.21L810.468 1261.73C805.713 1265.2 799.885 1266.88 794.012 1266.47L470.387 1244.13C463.421 1243.65 456.973 1240.28 452.605 1234.83L296.52 1040.19Z" fill="url(#paint33_linear_0_1)"/>
<path opacity="0.507246" fill-rule="evenodd" clip-rule="evenodd" d="M424.623 1220.71L280.793 1019.64C275.974 1012.9 275.565 1003.96 279.749 996.81L404.627 783.446C407.596 778.374 412.555 774.777 418.299 773.531L731.109 705.671C735.966 704.617 741.04 705.32 745.427 707.655L1000.76 843.539C1007.31 847.024 1011.54 853.706 1011.87 861.118L1022.25 1087.94C1022.59 1095.35 1018.99 1102.39 1012.79 1106.46L770.918 1265.08C766.762 1267.81 761.774 1268.97 756.841 1268.36L439.143 1229.34C433.309 1228.62 428.043 1225.49 424.623 1220.71ZM277.539 1021.96C271.803 1013.94 271.316 1003.3 276.297 994.789L401.175 781.426C404.71 775.387 410.613 771.106 417.451 769.622L730.261 701.762C736.043 700.507 742.083 701.344 747.306 704.124L1002.64 840.008C1010.44 844.157 1015.47 852.112 1015.87 860.935L1026.24 1087.76C1026.65 1096.58 1022.36 1104.96 1014.98 1109.81L773.111 1268.43C768.164 1271.67 762.226 1273.06 756.353 1272.33L438.655 1233.31C431.71 1232.45 425.441 1228.73 421.37 1223.04L277.539 1021.96Z" fill="url(#paint34_linear_0_1)"/>
<path opacity="0.521739" fill-rule="evenodd" clip-rule="evenodd" d="M394.36 1208.78L263.023 1002.01C258.604 995.055 258.663 986.156 263.175 979.258L397.255 774.255C400.479 769.326 405.625 765.977 411.437 765.025L723.066 714.019C727.996 713.212 733.052 714.189 737.327 716.774L981.84 864.674C988.171 868.504 992.02 875.384 991.97 882.783L990.469 1108.19C990.419 1115.59 986.48 1122.42 980.098 1126.16L733.636 1270.79C729.327 1273.32 724.258 1274.23 719.339 1273.36L408.418 1218.2C402.619 1217.17 397.518 1213.75 394.36 1208.78ZM259.647 1004.16C254.386 995.874 254.456 985.28 259.827 977.068L393.907 772.066C397.745 766.197 403.871 762.211 410.791 761.078L722.42 710.071C728.289 709.11 734.308 710.274 739.397 713.352L983.91 861.252C991.447 865.811 996.029 874.001 995.97 882.81L994.469 1108.22C994.41 1117.02 989.72 1125.15 982.122 1129.61L735.66 1274.24C730.531 1277.25 724.497 1278.33 718.641 1277.29L407.719 1222.14C400.815 1220.91 394.743 1216.85 390.983 1210.93L259.647 1004.16Z" fill="url(#paint35_linear_0_1)"/>
<path opacity="0.536232" fill-rule="evenodd" clip-rule="evenodd" d="M364.941 1196.59L246.294 984.878C242.285 977.724 242.807 968.891 247.63 962.259L390.385 765.991C393.857 761.218 399.178 758.126 405.045 757.472L714.595 723.009C719.586 722.454 724.611 723.705 728.759 726.537L961.902 885.695C967.997 889.856 971.461 896.911 971.025 904.278L957.826 1127.65C957.391 1135.02 953.12 1141.62 946.578 1145.03L696.313 1275.62C691.861 1277.95 686.724 1278.6 681.833 1277.46L378.495 1206.78C372.746 1205.44 367.826 1201.74 364.941 1196.59ZM242.804 986.834C238.032 978.317 238.653 967.801 244.396 959.906L387.15 763.638C391.284 757.955 397.618 754.275 404.602 753.497L714.153 719.034C720.094 718.373 726.077 719.862 731.014 723.233L964.157 882.391C971.413 887.345 975.537 895.743 975.018 904.514L961.819 1127.89C961.301 1136.66 956.217 1144.51 948.428 1148.58L698.164 1279.17C692.863 1281.93 686.747 1282.71 680.925 1281.35L377.587 1210.67C370.743 1209.08 364.887 1204.68 361.451 1198.55L242.804 986.834Z" fill="url(#paint36_linear_0_1)"/>
<path opacity="0.550725" fill-rule="evenodd" clip-rule="evenodd" d="M336.371 1184.19L230.565 968.287C226.975 960.961 227.953 952.218 233.073 945.866L383.963 758.675C387.675 754.069 393.158 751.243 399.063 750.891L705.668 732.615C710.708 732.315 715.688 733.84 719.695 736.912L940.969 906.546C946.81 911.024 949.881 918.232 949.062 925.546L924.374 1146.29C923.556 1153.6 918.969 1159.95 912.283 1163.03L658.999 1279.59C654.413 1281.7 649.219 1282.08 644.37 1280.68L349.379 1195.12C343.697 1193.47 338.974 1189.5 336.371 1184.19ZM226.974 970.047C222.7 961.326 223.864 950.918 229.959 943.356L380.848 756.165C385.268 750.682 391.795 747.317 398.825 746.898L705.43 728.622C711.43 728.264 717.358 730.08 722.128 733.737L943.403 903.371C950.356 908.702 954.012 917.284 953.038 925.991L928.349 1146.73C927.375 1155.44 921.914 1163 913.955 1166.66L660.672 1283.22C655.211 1285.73 649.029 1286.19 643.256 1284.52L348.264 1198.96C341.501 1197 335.878 1192.27 332.779 1185.95L226.974 970.047Z" fill="url(#paint37_linear_0_1)"/>
<path opacity="0.565217" fill-rule="evenodd" clip-rule="evenodd" d="M308.651 1171.62L215.794 952.288C212.63 944.815 214.056 936.187 219.456 930.129L377.928 752.323C381.872 747.897 387.504 745.345 393.432 745.296L696.257 742.805C701.333 742.763 706.253 744.562 710.105 747.867L919.064 927.174C924.633 931.954 927.304 939.294 926.107 946.535L890.168 1164.06C888.972 1171.3 884.082 1177.39 877.271 1180.12L621.742 1282.69C617.031 1284.58 611.794 1284.7 607.001 1283.03L321.071 1183.26C315.474 1181.31 310.963 1177.08 308.651 1171.62ZM212.111 953.848C208.344 944.951 210.041 934.68 216.469 927.467L374.942 749.662C379.638 744.393 386.342 741.354 393.399 741.296L696.224 738.805C702.267 738.755 708.124 740.896 712.71 744.832L921.668 924.139C928.299 929.828 931.478 938.567 930.054 947.187L894.114 1164.71C892.69 1173.33 886.869 1180.58 878.761 1183.83L623.232 1286.4C617.623 1288.65 611.39 1288.79 605.684 1286.8L319.754 1187.04C313.09 1184.71 307.719 1179.68 304.968 1173.18L212.111 953.848Z" fill="url(#paint38_linear_0_1)"/>
<path opacity="0.57971" fill-rule="evenodd" clip-rule="evenodd" d="M281.78 1158.93L201.935 936.93C199.203 929.334 201.066 920.845 206.729 915.092L372.222 746.949C376.39 742.714 382.157 740.444 388.093 740.699L686.335 753.549C691.435 753.769 696.28 755.838 699.965 759.371L896.21 947.53C901.492 952.594 903.757 960.043 902.188 967.191L855.266 1180.93C853.697 1188.08 848.52 1193.89 841.602 1196.28L584.588 1284.93C579.762 1286.6 574.496 1286.45 569.773 1284.51L293.573 1171.25C288.076 1169 283.791 1164.52 281.78 1158.93ZM198.171 938.283C194.918 929.241 197.137 919.134 203.878 912.286L369.371 744.143C374.333 739.102 381.198 736.399 388.265 736.703L686.507 749.553C692.578 749.814 698.347 752.278 702.733 756.484L898.979 944.643C905.267 950.672 907.963 959.54 906.095 968.049L859.173 1181.79C857.305 1190.3 851.142 1197.22 842.907 1200.06L585.892 1288.72C580.148 1290.7 573.878 1290.52 568.255 1288.21L292.056 1174.95C285.511 1172.27 280.41 1166.94 278.016 1160.28L198.171 938.283Z" fill="url(#paint39_linear_0_1)"/>
<path opacity="0.594203" fill-rule="evenodd" clip-rule="evenodd" d="M255.752 1146.17L188.939 922.255C186.644 914.562 188.935 906.234 194.842 900.798L366.786 742.563C371.168 738.53 377.056 736.548 382.984 737.108L675.878 764.814C680.989 765.298 685.746 767.636 689.249 771.388L872.438 967.563C877.417 972.896 879.272 980.431 877.337 987.466L819.728 1196.87C817.793 1203.91 812.345 1209.44 805.338 1211.47L547.584 1286.34C542.655 1287.77 537.371 1287.35 532.732 1285.15L266.881 1159.14C261.5 1156.59 257.455 1151.88 255.752 1146.17ZM185.106 923.398C182.373 914.241 185.101 904.326 192.133 897.855L364.078 739.619C369.294 734.819 376.303 732.459 383.361 733.126L676.255 760.832C682.339 761.407 688.002 764.192 692.173 768.658L875.361 964.833C881.289 971.182 883.498 980.152 881.194 988.527L823.585 1197.94C821.281 1206.31 814.795 1212.89 806.454 1215.31L548.7 1290.18C542.831 1291.89 536.541 1291.38 531.019 1288.77L265.168 1162.76C258.762 1159.72 253.946 1154.11 251.919 1147.32L185.106 923.398Z" fill="url(#paint40_linear_0_1)"/>
<path opacity="0.608696" fill-rule="evenodd" clip-rule="evenodd" d="M230.562 1133.39L176.758 908.305C174.902 900.541 177.608 892.396 183.742 887.287L361.561 739.17C366.147 735.351 372.142 733.662 378.047 734.528L664.865 776.568C669.974 777.317 674.627 779.921 677.937 783.884L847.777 987.228C852.44 992.811 853.881 1000.41 851.587 1007.31L783.615 1211.86C781.321 1218.77 775.618 1223.99 768.541 1225.67L510.776 1286.92C505.753 1288.12 500.466 1287.42 495.925 1284.96L240.99 1146.98C235.741 1144.14 231.949 1139.2 230.562 1133.39ZM172.867 909.235C170.658 899.992 173.88 890.296 181.182 884.213L359.001 736.097C364.461 731.549 371.597 729.54 378.627 730.57L665.445 772.61C671.527 773.502 677.067 776.602 681.007 781.32L850.847 984.664C856.398 991.311 858.114 1000.36 855.383 1008.57L787.411 1213.13C784.68 1221.34 777.891 1227.56 769.466 1229.56L511.701 1290.82C505.721 1292.24 499.427 1291.41 494.021 1288.48L239.086 1150.49C232.837 1147.11 228.323 1141.23 226.671 1134.32L172.867 909.235Z" fill="url(#paint41_linear_0_1)"/>
<path opacity="0.623188" fill-rule="evenodd" clip-rule="evenodd" d="M206.199 1120.63L165.338 895.117C163.923 887.307 167.032 879.367 173.374 874.594L356.488 736.775C361.268 733.178 367.355 731.789 373.221 732.959L653.275 788.776C658.368 789.791 662.905 792.657 666.008 796.822L822.259 1006.48C826.592 1012.3 827.619 1019.93 824.976 1026.69L746.987 1225.88C744.343 1232.63 738.403 1237.54 731.274 1238.87L474.208 1286.7C469.102 1287.65 463.825 1286.67 459.396 1283.96L215.893 1134.79C210.792 1131.67 207.266 1126.51 206.199 1120.63ZM161.403 895.83C159.718 886.533 163.419 877.08 170.968 871.398L354.083 733.579C359.773 729.296 367.019 727.644 374.003 729.036L654.057 784.853C660.12 786.061 665.521 789.474 669.216 794.431L825.467 1004.09C830.625 1011.01 831.848 1020.11 828.7 1028.14L750.712 1227.33C747.565 1235.37 740.493 1241.22 732.006 1242.8L474.939 1290.63C468.861 1291.76 462.579 1290.6 457.307 1287.37L213.803 1138.2C207.731 1134.48 203.533 1128.35 202.263 1121.34L161.403 895.83Z" fill="url(#paint42_linear_0_1)"/>
<path opacity="0.637681" fill-rule="evenodd" clip-rule="evenodd" d="M182.652 1107.93L154.628 882.724C153.654 874.895 157.151 867.179 163.681 862.751L351.508 735.376C356.47 732.01 362.634 730.927 368.447 732.398L641.09 801.403C646.155 802.685 650.56 805.809 653.445 810.165L795.921 1025.28C799.912 1031.3 800.524 1038.96 797.54 1045.54L709.908 1238.89C706.924 1245.47 700.764 1250.06 693.601 1251.03L437.922 1285.69C432.744 1286.39 427.491 1285.14 423.188 1282.17L191.579 1122.63C186.641 1119.23 183.393 1113.88 182.652 1107.93ZM150.659 883.218C149.499 873.897 153.662 864.712 161.436 859.44L349.263 732.065C355.17 728.059 362.509 726.769 369.428 728.52L642.071 797.525C648.101 799.051 653.345 802.77 656.78 807.956L799.256 1023.07C804.007 1030.24 804.735 1039.36 801.183 1047.19L713.551 1240.54C709.999 1248.38 702.666 1253.84 694.139 1255L438.459 1289.65C432.295 1290.49 426.041 1288.99 420.919 1285.47L189.31 1125.93C183.432 1121.88 179.564 1115.51 178.683 1108.42L150.659 883.218Z" fill="url(#paint43_linear_0_1)"/>
<path opacity="0.652174" fill-rule="evenodd" clip-rule="evenodd" d="M159.908 1095.34L144.572 871.159C144.037 863.334 147.906 855.864 154.606 851.786L346.562 734.969C351.696 731.844 357.922 731.069 363.665 732.84L628.293 814.414C633.317 815.963 637.577 819.339 640.232 823.876L768.798 1043.58C772.437 1049.8 772.634 1057.45 769.321 1063.85L672.44 1250.89C669.127 1257.29 662.765 1261.54 655.587 1262.16L401.959 1283.91C396.722 1284.36 391.506 1282.83 387.343 1279.62L168.037 1110.54C163.277 1106.87 160.318 1101.34 159.908 1095.34ZM140.582 871.432C139.944 862.117 144.551 853.223 152.527 848.369L344.482 731.552C350.594 727.832 358.006 726.91 364.843 729.017L629.472 810.592C635.452 812.435 640.524 816.454 643.684 821.856L772.251 1041.56C776.582 1048.96 776.817 1058.07 772.873 1065.69L675.992 1252.73C672.048 1260.35 664.474 1265.41 655.929 1266.14L402.301 1287.9C396.066 1288.43 389.857 1286.61 384.901 1282.79L165.594 1113.71C159.928 1109.34 156.405 1102.75 155.917 1095.62L140.582 871.432Z" fill="url(#paint44_linear_0_1)"/>
<path opacity="0.666667" fill-rule="evenodd" clip-rule="evenodd" d="M137.949 1082.9L135.115 860.447C135.015 852.653 139.241 845.445 146.09 841.725L341.593 735.547C346.886 732.672 353.16 732.208 358.818 734.275L614.872 827.773C619.841 829.587 623.942 833.21 626.356 837.917L740.931 1061.36C744.207 1067.75 743.992 1075.37 740.361 1081.56L634.648 1261.87C631.016 1268.07 624.472 1271.98 617.297 1272.24L366.361 1281.39C361.075 1281.58 355.911 1279.77 351.901 1276.33L145.252 1098.56C140.685 1094.63 138.025 1088.93 137.949 1082.9ZM131.115 860.498C130.997 851.219 136.027 842.639 144.181 838.21L339.684 732.032C345.986 728.609 353.454 728.057 360.19 730.517L616.244 824.016C622.16 826.176 627.042 830.488 629.915 836.092L744.49 1059.53C748.391 1067.14 748.135 1076.21 743.812 1083.58L638.098 1263.9C633.775 1271.27 625.985 1275.93 617.443 1276.24L366.507 1285.39C360.214 1285.62 354.066 1283.46 349.292 1279.36L142.643 1101.59C137.207 1096.91 134.04 1090.13 133.949 1082.95L131.115 860.498Z" fill="url(#paint45_linear_0_1)"/>
<path opacity="0.681159" fill-rule="evenodd" clip-rule="evenodd" d="M116.756 1070.66L126.198 850.612C126.53 842.873 131.095 835.946 138.074 832.588L336.544 737.099C341.985 734.481 348.29 734.332 353.849 736.69L600.814 841.444C605.715 843.522 609.643 847.385 611.805 852.25L712.359 1078.57C715.264 1085.1 714.64 1092.67 710.703 1098.65L596.593 1271.82C592.656 1277.8 585.948 1281.36 578.794 1281.27L331.165 1278.16C325.842 1278.09 320.743 1276.01 316.899 1272.32L123.208 1086.72C118.848 1082.54 116.498 1076.69 116.756 1070.66ZM122.202 850.44C122.597 841.228 128.031 832.981 136.34 828.984L334.809 733.494C341.287 730.378 348.793 730.2 355.411 733.007L602.376 837.761C608.21 840.236 612.887 844.834 615.46 850.626L716.014 1076.94C719.473 1084.73 718.73 1093.73 714.043 1100.85L599.933 1274.02C595.247 1281.14 587.261 1285.37 578.744 1285.27L331.115 1282.16C324.778 1282.08 318.708 1279.59 314.132 1275.21L120.44 1089.61C115.25 1084.63 112.452 1077.67 112.76 1070.48L122.202 850.44Z" fill="url(#paint46_linear_0_1)"/>
<path opacity="0.695652" fill-rule="evenodd" clip-rule="evenodd" d="M96.3103 1058.64L117.765 841.673C118.522 834.015 123.407 827.385 130.496 824.392L331.359 739.612C336.935 737.258 343.256 737.425 348.7 740.069L586.109 855.389C590.928 857.73 594.671 861.825 596.57 866.835L683.123 1095.18C685.65 1101.85 684.622 1109.34 680.393 1115.08L558.34 1280.74C554.111 1286.48 547.258 1289.68 540.143 1289.24L296.407 1274.24C291.059 1273.91 286.039 1271.55 282.375 1267.64L101.886 1075.06C97.747 1070.65 95.7147 1064.66 96.3103 1058.64ZM113.784 841.28C114.685 832.163 120.501 824.27 128.941 820.707L329.803 735.926C336.442 733.124 343.967 733.323 350.448 736.471L587.857 851.791C593.594 854.578 598.05 859.453 600.31 865.417L686.864 1093.76C689.872 1101.7 688.648 1110.62 683.614 1117.45L561.56 1283.11C556.526 1289.94 548.368 1293.76 539.897 1293.23L296.161 1278.23C289.795 1277.84 283.819 1275.03 279.457 1270.37L98.9676 1077.8C94.0401 1072.54 91.6207 1065.41 92.3298 1058.24L113.784 841.28Z" fill="url(#paint47_linear_0_1)"/>
<path opacity="0.710145" fill-rule="evenodd" clip-rule="evenodd" d="M76.5885 1046.88L109.757 833.648C110.931 826.094 116.118 819.776 123.298 817.152L325.984 743.068C331.683 740.985 338.004 741.469 343.319 744.394L570.749 869.572C575.475 872.173 579.018 876.492 580.645 881.635L653.269 1111.17C655.411 1117.94 653.986 1125.34 649.479 1130.83L519.951 1288.62C515.444 1294.11 508.467 1296.95 501.407 1296.17L262.123 1269.66C256.762 1269.07 251.835 1266.44 248.363 1262.31L81.2674 1063.63C77.3621 1058.99 75.656 1052.88 76.5885 1046.88ZM105.804 833.033C107.203 824.041 113.377 816.519 121.925 813.395L324.611 739.311C331.395 736.831 338.92 737.407 345.248 740.89L572.678 866.068C578.304 869.164 582.522 874.306 584.459 880.428L657.082 1109.96C659.633 1118.02 657.936 1126.83 652.57 1133.36L523.043 1291.16C517.677 1297.69 509.372 1301.07 500.967 1300.14L261.683 1273.64C255.3 1272.93 249.435 1269.8 245.302 1264.88L78.2062 1066.2C73.557 1060.68 71.5259 1053.41 72.6361 1046.27L105.804 833.033Z" fill="url(#paint48_linear_0_1)"/>
<path opacity="0.724638" fill-rule="evenodd" clip-rule="evenodd" d="M57.566 1035.43L102.115 826.547C103.698 819.122 109.167 813.13 116.417 810.875L320.366 747.447C326.174 745.641 332.48 746.442 337.652 749.642L554.73 883.957C559.348 886.814 562.679 891.349 564.025 896.61L622.839 1126.51C624.593 1133.36 622.776 1140.64 618.006 1145.87L481.489 1295.47C476.719 1300.7 469.637 1303.17 462.65 1302.05L228.344 1264.46C222.983 1263.6 218.162 1260.7 214.896 1256.36L61.3291 1052.45C57.6702 1047.59 56.2974 1041.38 57.566 1035.43ZM98.2028 825.713C100.088 816.873 106.598 809.74 115.229 807.055L319.178 743.628C326.092 741.477 333.599 742.431 339.756 746.24L556.834 880.555C562.332 883.957 566.298 889.356 567.9 895.619L626.714 1125.52C628.802 1133.68 626.639 1142.34 620.961 1148.56L484.443 1298.17C478.765 1304.39 470.335 1307.33 462.017 1306L227.711 1268.41C221.328 1267.39 215.589 1263.93 211.7 1258.77L58.1339 1054.85C53.778 1049.07 52.1438 1041.68 53.654 1034.6L98.2028 825.713Z" fill="url(#paint49_linear_0_1)"/>
<path opacity="0.73913" fill-rule="evenodd" clip-rule="evenodd" d="M39.2167 1024.32L94.7805 820.382C96.7624 813.107 102.492 807.454 109.792 805.569L314.453 752.727C320.357 751.203 326.631 752.32 331.646 755.788L538.046 898.505C542.544 901.615 545.651 906.357 546.707 911.722L591.879 1141.18C593.24 1148.09 591.041 1155.23 586.024 1160.18L443.014 1301.3C437.997 1306.25 430.831 1308.35 423.934 1306.9L195.102 1258.67C189.752 1257.54 185.052 1254.37 182.002 1249.84L42.0477 1041.55C38.6471 1036.49 37.6139 1030.2 39.2167 1024.32ZM90.9211 819.33C93.2806 810.67 100.101 803.94 108.792 801.696L313.453 748.854C320.481 747.04 327.951 748.369 333.921 752.498L540.321 895.215C545.675 898.917 549.374 904.562 550.632 910.949L595.803 1140.4C597.424 1148.64 594.806 1157.13 588.834 1163.03L445.824 1304.14C439.851 1310.04 431.32 1312.54 423.109 1310.81L194.278 1262.59C187.908 1261.24 182.313 1257.47 178.682 1252.07L38.7276 1043.78C34.6793 1037.76 33.4493 1030.27 35.3574 1023.27L90.9211 819.33Z" fill="url(#paint50_linear_0_1)"/>
<path opacity="0.753623" fill-rule="evenodd" clip-rule="evenodd" d="M21.5134 1013.57L87.6953 815.156C90.0638 808.055 96.0334 802.751 103.364 801.236L308.196 758.882C314.182 757.644 320.41 759.076 325.254 762.803L520.697 913.181C525.062 916.539 527.932 921.477 528.691 926.932L560.435 1155.15C561.402 1162.1 558.831 1169.08 553.583 1173.74L404.589 1306.11C399.341 1310.77 392.11 1312.51 385.319 1310.73L162.426 1252.33C157.099 1250.93 152.533 1247.5 149.712 1242.77L23.3985 1030.98C20.2676 1025.73 19.5793 1019.37 21.5134 1013.57ZM83.9008 813.89C86.7205 805.437 93.8271 799.123 102.554 797.319L307.386 754.965C314.512 753.491 321.926 755.196 327.693 759.633L523.136 910.011C528.332 914.009 531.75 919.887 532.653 926.381L564.397 1154.6C565.548 1162.88 562.487 1171.18 556.239 1176.73L407.246 1309.1C400.998 1314.65 392.39 1316.71 384.305 1314.6L161.412 1256.2C155.07 1254.53 149.635 1250.45 146.277 1244.82L19.9631 1033.02C16.2359 1026.78 15.4165 1019.21 17.7189 1012.31L83.9008 813.89Z" fill="url(#paint51_linear_0_1)"/>
<path opacity="0.768116" fill-rule="evenodd" clip-rule="evenodd" d="M4.42642 1003.23L80.8005 810.872C83.5427 803.965 89.7307 799.022 97.0723 797.874L301.547 765.883C307.601 764.936 313.767 766.68 318.427 770.658L502.683 927.948C506.902 931.549 509.524 936.673 509.978 942.201L528.553 1168.42C529.126 1175.39 526.193 1182.18 520.731 1186.55L366.271 1309.93C360.809 1314.29 353.534 1315.65 346.865 1313.55L130.34 1245.46C125.049 1243.8 120.631 1240.11 118.051 1235.2L5.35473 1020.74C2.50421 1015.32 2.16513 1008.92 4.42642 1003.23ZM77.0828 809.396C80.3473 801.174 87.714 795.289 96.454 793.922L300.928 761.931C308.136 760.803 315.476 762.88 321.024 767.616L505.28 924.906C510.302 929.193 513.424 935.293 513.965 941.874L532.54 1168.09C533.221 1176.39 529.73 1184.48 523.227 1189.67L368.768 1313.05C362.265 1318.25 353.604 1319.87 345.665 1317.37L129.14 1249.28C122.841 1247.3 117.582 1242.9 114.51 1237.06L1.8139 1022.61C-1.57959 1016.15 -1.98326 1008.53 0.708731 1001.75L77.0828 809.396Z" fill="url(#paint52_linear_0_1)"/>
<path opacity="0.782609" fill-rule="evenodd" clip-rule="evenodd" d="M-12.0746 993.303L74.0383 807.527C77.1398 800.836 83.5241 796.262 90.8573 795.478L294.459 773.698C300.568 773.045 306.656 775.099 311.12 779.319L484.006 942.77C488.067 946.608 490.43 951.907 490.573 957.493L496.282 1180.96C496.459 1187.92 493.177 1194.52 487.519 1198.57L328.119 1312.77C322.461 1316.82 315.161 1317.81 308.629 1315.4L98.8703 1238.11C93.627 1236.18 89.37 1232.24 87.0413 1227.16L-12.1114 1010.89C-14.6716 1005.3 -14.6581 998.877 -12.0746 993.303ZM70.4092 805.845C74.1015 797.879 81.7018 792.434 90.4318 791.501L294.034 769.721C301.306 768.943 308.553 771.389 313.868 776.413L486.754 939.863C491.588 944.433 494.401 950.741 494.571 957.391L500.28 1180.86C500.492 1189.15 496.585 1197 489.848 1201.82L330.449 1316.02C323.712 1320.85 315.022 1322.02 307.246 1319.15L97.4873 1241.87C91.2454 1239.57 86.1775 1234.87 83.4052 1228.83L-15.7475 1012.55C-18.7953 1005.91 -18.7793 998.256 -15.7037 991.621L70.4092 805.845Z" fill="url(#paint53_linear_0_1)"/>
<path opacity="0.797101" fill-rule="evenodd" clip-rule="evenodd" d="M-28.0211 983.831L67.3517 805.118C70.7971 798.661 77.3552 794.464 84.661 794.04L286.89 782.296C293.039 781.938 299.034 784.299 303.289 788.751L464.671 957.611C468.561 961.681 470.654 967.143 470.48 972.77L463.667 1192.78C463.452 1199.7 459.834 1206.08 453.997 1209.82L290.19 1314.65C284.352 1318.38 277.048 1319 270.668 1316.29L68.0378 1230.32C62.8548 1228.12 58.7719 1223.94 56.7054 1218.7L-29.0285 1001.43C-31.2891 995.698 -30.9208 989.265 -28.0211 983.831ZM63.8227 803.234C67.9245 795.548 75.7317 790.552 84.4291 790.047L286.658 778.302C293.978 777.877 301.115 780.687 306.181 785.987L467.563 954.847C472.194 959.693 474.685 966.195 474.478 972.894L467.665 1192.9C467.409 1201.15 463.102 1208.74 456.153 1213.18L292.346 1318.02C285.397 1322.46 276.701 1323.2 269.106 1319.97L66.4755 1234.01C60.3054 1231.39 55.4448 1226.4 52.9846 1220.17L-32.7493 1002.89C-35.4405 996.075 -35.0021 988.417 -31.5501 981.948L63.8227 803.234Z" fill="url(#paint54_linear_0_1)"/>
<path opacity="0.811594" fill-rule="evenodd" clip-rule="evenodd" d="M-43.4461 974.835L60.6844 803.634C64.4572 797.432 71.1663 793.617 78.4261 793.548L278.798 791.638C284.973 791.579 290.86 794.241 294.895 798.915L444.684 972.437C448.392 976.731 450.204 982.344 449.707 987.996L430.756 1203.85C430.152 1210.72 426.212 1216.86 420.215 1220.27L252.537 1315.59C246.539 1319 239.25 1319.25 233.036 1316.25L37.862 1222.13C32.7516 1219.67 28.8558 1215.24 27.0616 1209.86L-45.4267 992.388C-47.3793 986.53 -46.6549 980.11 -43.4461 974.835ZM57.2669 801.556C61.7584 794.171 69.7453 789.631 78.3879 789.548L278.76 787.638C286.111 787.568 293.12 790.737 297.923 796.301L447.712 969.823C452.126 974.936 454.283 981.617 453.692 988.345L434.741 1204.2C434.022 1212.38 429.331 1219.69 422.192 1223.75L254.513 1319.07C247.374 1323.13 238.696 1323.42 231.299 1319.86L36.1245 1225.73C30.0406 1222.8 25.4028 1217.53 23.2669 1211.12L-49.2214 993.653C-51.5459 986.68 -50.6835 979.036 -46.8636 972.756L57.2669 801.556Z" fill="url(#paint55_linear_0_1)"/>
<path opacity="0.826087" fill-rule="evenodd" clip-rule="evenodd" d="M-58.3834 966.334L53.9812 803.066C58.0637 797.134 64.9008 793.707 72.0963 793.987L270.145 801.688C276.331 801.929 282.095 804.887 285.898 809.771L424.053 987.212C427.566 991.725 429.088 997.474 428.265 1003.13L397.596 1214.18C396.608 1220.97 392.362 1226.85 386.223 1229.93L215.212 1315.63C209.074 1318.71 201.819 1318.59 195.785 1315.32L8.35998 1213.57C3.33408 1210.85 -0.361796 1206.19 -1.87391 1200.67L-61.3369 983.793C-62.9738 977.822 -61.8931 971.434 -58.3834 966.334ZM50.6862 800.798C55.5462 793.736 63.6856 789.657 72.2517 789.99L270.3 797.691C277.664 797.978 284.527 801.499 289.055 807.314L427.209 984.755C431.392 990.127 433.203 996.972 432.224 1003.71L401.554 1214.75C400.379 1222.84 395.323 1229.84 388.015 1233.51L217.005 1319.21C209.697 1322.87 201.06 1322.73 193.876 1318.83L6.45164 1217.09C0.468448 1213.84 -3.93139 1208.29 -5.73152 1201.73L-65.1945 984.85C-67.1433 977.743 -65.8567 970.138 -61.6785 964.067L50.6862 800.798Z" fill="url(#paint56_linear_0_1)"/>
<path opacity="0.84058" fill-rule="evenodd" clip-rule="evenodd" d="M-72.8673 958.349L47.1885 803.396C51.562 797.752 58.504 794.716 65.6175 795.338L260.893 812.406C267.076 812.947 272.704 816.195 276.265 821.278L402.788 1001.9C406.096 1006.63 407.316 1012.5 406.164 1018.15L364.234 1223.75C362.868 1230.45 358.331 1236.06 352.071 1238.8L178.268 1314.8C172.008 1317.54 164.807 1317.06 158.964 1313.51L-20.4536 1204.7C-25.3828 1201.71 -28.8663 1196.82 -30.0872 1191.19L-76.7905 975.659C-78.105 969.593 -76.6687 963.256 -72.8673 958.349ZM44.0266 800.946C49.233 794.227 57.4973 790.613 65.9658 791.353L261.241 808.421C268.602 809.065 275.302 812.932 279.541 818.984L406.064 999.61C410.002 1005.23 411.455 1012.22 410.084 1018.95L368.153 1224.55C366.527 1232.52 361.126 1239.21 353.673 1242.46L179.871 1318.46C172.418 1321.72 163.845 1321.15 156.89 1316.93L-22.5279 1208.12C-28.396 1204.56 -32.543 1198.74 -33.9964 1192.04L-80.6998 976.506C-82.2646 969.284 -80.5548 961.741 -76.0292 955.9L44.0266 800.946Z" fill="url(#paint57_linear_0_1)"/>
<path opacity="0.855072" fill-rule="evenodd" clip-rule="evenodd" d="M-86.9327 950.897L40.2542 804.609C44.899 799.266 51.9228 796.624 58.9371 797.579L251.01 823.75C257.176 824.59 262.652 828.122 265.961 833.392L380.9 1016.48C383.991 1021.4 384.903 1027.39 383.419 1033.01L330.716 1232.59C328.98 1239.16 324.169 1244.49 317.807 1246.88L141.751 1313.12C135.388 1315.51 128.26 1314.68 122.622 1310.88L-48.5662 1195.54C-53.3869 1192.29 -56.6457 1187.19 -57.5667 1181.45L-91.8196 968.003C-92.8056 961.859 -91.0157 955.594 -86.9327 950.897ZM37.2355 801.984C42.765 795.624 51.1267 792.478 59.4771 793.616L251.55 819.786C258.89 820.787 265.409 824.991 269.348 831.265L384.288 1014.35C387.967 1020.22 389.053 1027.34 387.286 1034.03L334.583 1233.61C332.517 1241.43 326.79 1247.77 319.215 1250.62L143.16 1316.86C135.585 1319.71 127.099 1318.72 120.387 1314.2L-50.8013 1198.86C-56.5402 1194.99 -60.4198 1188.92 -61.5162 1182.08L-95.7691 968.637C-96.9429 961.322 -94.8121 953.864 -89.9514 948.273L37.2355 801.984Z" fill="url(#paint58_linear_0_1)"/>
<path opacity="0.869565" fill-rule="evenodd" clip-rule="evenodd" d="M-100.616 943.992L33.1273 806.681C38.0229 801.655 45.1054 799.406 52.004 800.687L240.464 835.676C246.599 836.815 251.909 840.622 254.956 846.067L358.403 1030.91C361.266 1036.03 361.861 1042.11 360.043 1047.68L297.087 1240.68C294.99 1247.11 289.924 1252.13 283.478 1254.18L105.708 1310.63C99.2622 1312.68 92.2251 1311.5 86.8025 1307.46L-75.9686 1186.14C-80.6689 1182.64 -83.691 1177.33 -84.3041 1171.5L-106.457 960.841C-107.11 954.636 -104.969 948.462 -100.616 943.992ZM30.2619 803.891C36.09 797.907 44.5215 795.229 52.7341 796.754L241.194 831.743C248.497 833.099 254.819 837.632 258.447 844.114L361.894 1028.96C365.302 1035.05 366.01 1042.28 363.845 1048.92L300.89 1241.92C298.393 1249.57 292.363 1255.55 284.689 1257.99L106.919 1314.45C99.2452 1316.88 90.8677 1315.47 84.4122 1310.66L-78.3589 1189.35C-83.9546 1185.18 -87.5523 1178.86 -88.2822 1171.92L-110.435 961.26C-111.212 953.872 -108.664 946.522 -103.481 941.201L30.2619 803.891Z" fill="url(#paint59_linear_0_1)"/>
<path opacity="0.884058" fill-rule="evenodd" clip-rule="evenodd" d="M-113.953 937.647L25.7589 809.591C30.8842 804.893 38.0023 803.037 44.7691 804.633L229.228 848.139C235.317 849.575 240.448 853.651 243.225 859.257L335.312 1045.16C337.936 1050.46 338.206 1056.62 336.053 1062.13L263.392 1248.03C260.944 1254.29 255.642 1259.01 249.133 1260.7L70.181 1307.38C63.6723 1309.08 56.7442 1307.55 51.5475 1303.28L-102.653 1176.55C-107.222 1172.8 -109.995 1167.29 -110.293 1161.39L-120.736 954.185C-121.051 947.937 -118.564 941.874 -113.953 937.647ZM23.0562 806.642C29.1577 801.05 37.6316 798.84 45.6874 800.74L230.146 844.245C237.395 845.955 243.504 850.807 246.809 857.481L338.896 1043.39C342.021 1049.69 342.341 1057.03 339.778 1063.58L267.118 1249.48C264.203 1256.94 257.891 1262.55 250.143 1264.57L71.1905 1311.25C63.442 1313.27 55.1943 1311.46 49.0078 1306.37L-105.193 1179.64C-110.632 1175.17 -113.934 1168.62 -114.288 1161.59L-124.731 954.387C-125.106 946.949 -122.146 939.731 -116.655 934.699L23.0562 806.642Z" fill="url(#paint60_linear_0_1)"/>
<path opacity="0.898551" fill-rule="evenodd" clip-rule="evenodd" d="M-126.979 931.872L18.1025 813.311C23.4354 808.952 30.5664 807.486 37.1862 809.387L217.275 861.093C223.304 862.824 228.244 867.159 230.742 872.912L311.642 1059.21C314.018 1064.68 313.955 1070.9 311.468 1076.33L229.676 1254.65C226.887 1260.73 221.369 1265.12 214.817 1266.47L35.211 1303.39C28.6591 1304.74 21.8574 1302.89 16.8963 1298.4L-128.616 1166.81C-133.041 1162.81 -135.555 1157.11 -135.53 1151.15L-134.691 948.046C-134.665 941.774 -131.836 935.842 -126.979 931.872ZM15.5713 810.213C21.9201 805.025 30.4093 803.28 38.29 805.542L218.379 857.248C225.557 859.309 231.437 864.47 234.411 871.319L315.311 1057.61C318.14 1064.13 318.065 1071.54 315.104 1077.99L233.312 1256.32C229.992 1263.56 223.423 1268.78 215.623 1270.38L36.0166 1307.31C28.2167 1308.92 20.1194 1306.71 14.2133 1301.37L-131.299 1169.77C-136.566 1165.01 -139.559 1158.23 -139.53 1151.13L-138.691 948.03C-138.66 940.563 -135.292 933.5 -129.51 928.775L15.5713 810.213Z" fill="url(#paint61_linear_0_1)"/>
<path opacity="0.913043" fill-rule="evenodd" clip-rule="evenodd" d="M-139.732 926.675L10.1134 817.811C15.6315 813.802 22.7528 812.723 29.211 814.917L204.585 874.49C210.54 876.513 215.275 881.098 217.488 886.985L287.412 1073.01C289.53 1078.65 289.128 1084.92 286.307 1090.24L195.98 1260.56C192.865 1266.43 187.15 1270.49 180.575 1271.48L0.835734 1298.72C-5.73941 1299.72 -12.398 1297.54 -17.1148 1292.86L-153.853 1156.95C-158.123 1152.71 -160.366 1146.84 -160.013 1140.83L-148.353 942.433C-147.984 936.155 -144.82 930.372 -139.732 926.675ZM7.76229 814.575C14.3314 809.802 22.8092 808.517 30.4976 811.129L205.872 870.702C212.961 873.111 218.598 878.569 221.232 885.578L291.156 1071.61C293.678 1078.31 293.199 1085.78 289.841 1092.12L199.514 1262.43C195.805 1269.43 189.002 1274.25 181.174 1275.44L1.43514 1302.68C-6.3924 1303.86 -14.3193 1301.27 -19.9346 1295.69L-156.673 1159.79C-161.756 1154.74 -164.427 1147.75 -164.006 1140.59L-152.346 942.198C-151.907 934.724 -148.14 927.84 -142.083 923.439L7.76229 814.575Z" fill="url(#paint62_linear_0_1)"/>
<path opacity="0.927536" fill-rule="evenodd" clip-rule="evenodd" d="M-152.248 922.062L1.74877 823.061C7.42892 819.409 14.5185 818.712 20.8013 821.187L191.137 888.282C197.005 890.594 201.523 895.419 203.443 901.425L262.641 1086.56C264.491 1092.35 263.744 1098.65 260.592 1103.85L162.346 1265.76C158.917 1271.41 153.027 1275.12 146.449 1275.77L-32.9105 1293.41C-39.4891 1294.06 -45.9884 1291.57 -50.453 1286.7L-178.366 1147.03C-182.47 1142.55 -184.432 1136.51 -183.744 1130.47L-161.757 937.351C-161.044 931.086 -157.552 925.472 -152.248 922.062ZM-0.414316 819.696C6.34776 815.349 14.7878 814.519 22.2673 817.465L192.603 884.561C199.588 887.312 204.967 893.057 207.253 900.207L266.451 1085.34C268.654 1092.23 267.764 1099.74 264.011 1105.92L165.766 1267.84C161.684 1274.56 154.672 1278.98 146.841 1279.75L-32.5189 1297.39C-40.3506 1298.16 -48.0878 1295.2 -53.4028 1289.4L-181.315 1149.73C-186.201 1144.4 -188.537 1137.21 -187.719 1130.02L-165.731 936.899C-164.882 929.44 -160.726 922.757 -154.411 918.698L-0.414316 819.696Z" fill="url(#paint63_linear_0_1)"/>
<path opacity="0.942029" fill-rule="evenodd" clip-rule="evenodd" d="M-164.563 918.037L-7.03123 829.027C-1.21253 825.739 5.82364 825.417 11.9181 828.16L176.916 902.421C182.682 905.016 186.972 910.071 188.594 916.182L237.348 1099.82C238.923 1105.74 237.825 1112.07 234.344 1117.12L128.814 1270.28C125.087 1275.69 119.043 1279.04 112.481 1279.34L-65.9959 1287.5C-72.5583 1287.8 -78.8829 1285.02 -83.0883 1279.97L-202.156 1137.08C-206.084 1132.37 -207.754 1126.17 -206.727 1120.12L-174.936 932.806C-173.878 926.572 -170.068 921.147 -164.563 918.037ZM-8.99895 825.544C-2.07194 821.63 6.30447 821.247 13.5598 824.513L178.558 898.773C185.422 901.863 190.529 907.88 192.46 915.155L241.214 1098.79C243.089 1105.85 241.782 1113.37 237.638 1119.39L132.108 1272.55C127.671 1278.99 120.476 1282.98 112.664 1283.34L-65.8132 1291.5C-73.6255 1291.86 -81.1548 1288.54 -86.1612 1282.53L-205.229 1139.64C-209.905 1134.03 -211.893 1126.65 -210.671 1119.45L-178.88 932.137C-177.62 924.716 -173.084 918.257 -166.531 914.554L-8.99895 825.544Z" fill="url(#paint64_linear_0_1)"/>
<path opacity="0.956522" fill-rule="evenodd" clip-rule="evenodd" d="M-176.713 914.599L-16.2639 835.672C-10.3305 832.754 -3.36887 832.8 2.52514 835.798L161.908 916.855C167.559 919.729 171.609 925.002 172.929 931.204L211.557 1112.76C212.847 1118.82 211.394 1125.14 207.588 1130.03L95.4228 1274.13C91.4138 1279.28 85.238 1282.27 78.7114 1282.23L-98.3916 1281.05C-104.918 1281 -111.054 1277.93 -114.994 1272.72L-225.229 1127.15C-228.969 1122.21 -230.338 1115.87 -228.968 1109.82L-187.923 928.799C-186.522 922.617 -182.401 917.398 -176.713 914.599ZM-18.0295 832.083C-10.9659 828.608 -2.67827 828.664 4.33841 832.232L163.721 913.29C170.449 916.711 175.27 922.989 176.841 930.371L215.47 1111.93C217.005 1119.14 215.275 1126.67 210.745 1132.49L98.5792 1276.58C93.8066 1282.71 86.4545 1286.28 78.6848 1286.23L-98.4183 1285.05C-106.188 1285 -113.492 1281.33 -118.182 1275.14L-228.418 1129.56C-232.871 1123.68 -234.499 1116.13 -232.869 1108.94L-191.824 927.915C-190.156 920.554 -185.251 914.342 -178.478 911.01L-18.0295 832.083Z" fill="url(#paint65_linear_0_1)"/>
<path opacity="0.971014" fill-rule="evenodd" clip-rule="evenodd" d="M-188.733 911.75L-25.9847 842.96C-19.9606 840.414 -13.0941 840.819 -7.41174 844.057L146.103 931.536C151.626 934.683 155.426 940.163 156.438 946.439L185.289 1125.37C186.285 1131.55 184.474 1137.85 180.349 1142.55L62.2079 1277.33C57.9345 1282.2 51.649 1284.83 45.1775 1284.45L-130.073 1274.09C-136.544 1273.71 -142.476 1270.36 -146.146 1265.01L-247.592 1117.27C-251.135 1112.11 -252.192 1105.64 -250.475 1099.62L-200.752 925.332C-199.008 919.219 -194.589 914.225 -188.733 911.75ZM-27.542 839.275C-20.3704 836.244 -12.196 836.727 -5.43135 840.582L148.083 928.061C154.658 931.807 159.182 938.331 160.387 945.802L189.238 1124.73C190.424 1132.09 188.268 1139.59 183.357 1145.19L65.2158 1279.96C60.1284 1285.77 52.6458 1288.9 44.9415 1288.44L-130.309 1278.08C-138.013 1277.63 -145.075 1273.64 -149.443 1267.28L-250.89 1119.53C-255.107 1113.39 -256.365 1105.69 -254.321 1098.52L-204.598 924.235C-202.522 916.957 -197.261 911.012 -190.291 908.066L-27.542 839.275Z" fill="url(#paint66_linear_0_1)"/>
<path opacity="0.985507" fill-rule="evenodd" clip-rule="evenodd" d="M-200.66 909.486L-36.2253 850.85C-30.1347 848.678 -23.3831 849.433 -17.9228 852.897L129.494 946.412C134.876 949.826 138.417 955.5 139.118 961.835L158.569 1137.62C159.264 1143.91 157.091 1150.17 152.651 1154.67L29.2051 1279.9C24.6857 1284.49 18.3133 1286.74 11.9156 1286.03L-161.016 1266.69C-167.414 1265.97 -173.13 1262.36 -176.525 1256.89L-269.255 1107.48C-272.589 1102.11 -273.326 1095.52 -271.259 1089.55L-213.453 922.402C-211.37 916.378 -206.663 911.627 -200.66 909.486ZM-37.5688 847.082C-30.3181 844.497 -22.2805 845.396 -15.7801 849.519L131.637 943.034C138.044 947.099 142.259 953.854 143.093 961.396L162.545 1137.18C163.372 1144.66 160.785 1152.12 155.5 1157.48L32.0537 1282.71C26.6735 1288.17 19.0873 1290.86 11.471 1290L-161.461 1270.66C-169.077 1269.81 -175.882 1265.51 -179.924 1259L-272.653 1109.59C-276.623 1103.2 -277.499 1095.35 -275.039 1088.24L-217.233 921.095C-214.753 913.924 -209.15 908.267 -202.003 905.718L-37.5688 847.082Z" fill="url(#paint67_linear_0_1)"/>
<path fill-rule="evenodd" clip-rule="evenodd" d="M-212.526 907.802L-47.0154 859.301C-40.8824 857.504 -34.2649 858.597 -29.036 862.272L112.078 961.433C117.307 965.108 120.578 970.963 120.965 977.342L131.42 1149.5C131.808 1155.87 129.269 1162.08 124.524 1166.36L-3.55266 1281.87C-8.29847 1286.15 -14.7351 1288.04 -21.0404 1287L-191.204 1258.88C-197.509 1257.84 -202.997 1253.99 -206.114 1248.41L-290.228 1097.84C-293.345 1092.26 -293.752 1085.56 -291.333 1079.65L-226.058 920.007C-223.64 914.091 -218.659 909.599 -212.526 907.802ZM-48.1402 855.463C-40.8391 853.323 -32.9611 854.625 -26.7362 858.999L114.377 958.161C120.602 962.535 124.497 969.506 124.958 977.1L135.413 1149.25C135.874 1156.85 132.852 1164.24 127.202 1169.33L-0.873711 1284.84C-6.52348 1289.94 -14.1861 1292.18 -21.6924 1290.94L-191.856 1262.83C-199.362 1261.59 -205.896 1257 -209.606 1250.36L-293.721 1099.79C-297.431 1093.15 -297.915 1085.18 -295.036 1078.13L-229.761 918.493C-226.882 911.451 -220.952 906.103 -213.651 903.963L-48.1402 855.463Z" fill="url(#paint68_linear_0_1)"/>
</g>
<g opacity="0.25" filter="url(#filter0_f_0_1)">
<circle cx="502.5" cy="502.5" r="502.5" transform="matrix(-1 0 0 1 1954 -885)" fill="url(#paint69_radial_0_1)"/>
</g>
<g opacity="0.25" filter="url(#filter1_f_0_1)">
<circle cx="287" cy="287" r="287" transform="matrix(-1 0 0 1 70 -62)" fill="url(#paint70_radial_0_1)"/>
</g>
<defs>
<filter id="filter0_f_0_1" x="749" y="-1085" width="1405" height="1405" filterUnits="userSpaceOnUse" color-interpolation-filters="sRGB">
<feFlood flood-opacity="0" result="BackgroundImageFix"/>
<feBlend mode="normal" in="SourceGraphic" in2="BackgroundImageFix" result="shape"/>
<feGaussianBlur stdDeviation="100" result="effect1_foregroundBlur_0_1"/>
</filter>
<filter id="filter1_f_0_1" x="-704" y="-262" width="974" height="974" filterUnits="userSpaceOnUse" color-interpolation-filters="sRGB">
<feFlood flood-opacity="0" result="BackgroundImageFix"/>
<feBlend mode="normal" in="SourceGraphic" in2="BackgroundImageFix" result="shape"/>
<feGaussianBlur stdDeviation="100" result="effect1_foregroundBlur_0_1"/>
</filter>
<linearGradient id="paint0_linear_0_1" x1="85.0778" y1="721.766" x2="1778.87" y2="279.988" gradientUnits="userSpaceOnUse">
<stop stop-color="#7000FF"/>
<stop offset="1" stop-color="#3688C9"/>
<stop offset="1" stop-color="#1B5D92"/>
</linearGradient>
<linearGradient id="paint1_linear_0_1" x1="82.3945" y1="658.638" x2="1787.48" y2="308.068" gradientUnits="userSpaceOnUse">
<stop stop-color="#7000FF"/>
<stop offset="1" stop-color="#3688C9"/>
<stop offset="1" stop-color="#1B5D92"/>
</linearGradient>
<linearGradient id="paint2_linear_0_1" x1="82.9505" y1="596.988" x2="1794.44" y2="337.591" gradientUnits="userSpaceOnUse">
<stop stop-color="#7000FF"/>
<stop offset="1" stop-color="#3688C9"/>
<stop offset="1" stop-color="#1B5D92"/>
</linearGradient>
<linearGradient id="paint3_linear_0_1" x1="86.6437" y1="536.974" x2="1799.7" y2="368.455" gradientUnits="userSpaceOnUse">
<stop stop-color="#7000FF"/>
<stop offset="1" stop-color="#3688C9"/>
<stop offset="1" stop-color="#1B5D92"/>
</linearGradient>
<linearGradient id="paint4_linear_0_1" x1="93.3645" y1="478.747" x2="1803.19" y2="400.557" gradientUnits="userSpaceOnUse">
<stop stop-color="#7000FF"/>
<stop offset="1" stop-color="#3688C9"/>
<stop offset="1" stop-color="#1B5D92"/>
</linearGradient>
<linearGradient id="paint5_linear_0_1" x1="102.996" y1="422.451" x2="1804.86" y2="433.789" gradientUnits="userSpaceOnUse">
<stop stop-color="#7000FF"/>
<stop offset="1" stop-color="#3688C9"/>
<stop offset="1" stop-color="#1B5D92"/>
</linearGradient>
<linearGradient id="paint6_linear_0_1" x1="115.415" y1="368.224" x2="1804.66" y2="468.043" gradientUnits="userSpaceOnUse">
<stop stop-color="#7000FF"/>
<stop offset="1" stop-color="#3688C9"/>
<stop offset="1" stop-color="#1B5D92"/>
</linearGradient>
<linearGradient id="paint7_linear_0_1" x1="130.49" y1="316.196" x2="1802.54" y2="503.206" gradientUnits="userSpaceOnUse">
<stop stop-color="#7000FF"/>
<stop offset="1" stop-color="#3688C9"/>
<stop offset="1" stop-color="#1B5D92"/>
</linearGradient>
<linearGradient id="paint8_linear_0_1" x1="148.087" y1="266.488" x2="1798.47" y2="539.166" gradientUnits="userSpaceOnUse">
<stop stop-color="#7000FF"/>
<stop offset="1" stop-color="#3688C9"/>
<stop offset="1" stop-color="#1B5D92"/>
</linearGradient>
<linearGradient id="paint9_linear_0_1" x1="168.064" y1="219.214" x2="1792.43" y2="575.81" gradientUnits="userSpaceOnUse">
<stop stop-color="#7000FF"/>
<stop offset="1" stop-color="#3688C9"/>
<stop offset="1" stop-color="#1B5D92"/>
</linearGradient>
<linearGradient id="paint10_linear_0_1" x1="190.274" y1="174.48" x2="1784.38" y2="613.022" gradientUnits="userSpaceOnUse">
<stop stop-color="#7000FF"/>
<stop offset="1" stop-color="#3688C9"/>
<stop offset="1" stop-color="#1B5D92"/>
</linearGradient>
<linearGradient id="paint11_linear_0_1" x1="214.567" y1="132.38" x2="1774.31" y2="650.686" gradientUnits="userSpaceOnUse">
<stop stop-color="#7000FF"/>
<stop offset="1" stop-color="#3688C9"/>
<stop offset="1" stop-color="#1B5D92"/>
</linearGradient>
<linearGradient id="paint12_linear_0_1" x1="240.788" y1="93.0052" x2="1762.22" y2="688.689" gradientUnits="userSpaceOnUse">
<stop stop-color="#7000FF"/>
<stop offset="1" stop-color="#3688C9"/>
<stop offset="1" stop-color="#1B5D92"/>
</linearGradient>
<linearGradient id="paint13_linear_0_1" x1="268.78" y1="56.4322" x2="1748.1" y2="726.913" gradientUnits="userSpaceOnUse">
<stop stop-color="#7000FF"/>
<stop offset="1" stop-color="#3688C9"/>
<stop offset="1" stop-color="#1B5D92"/>
</linearGradient>
<linearGradient id="paint14_linear_0_1" x1="298.381" y1="22.732" x2="1731.95" y2="765.246" gradientUnits="userSpaceOnUse">
<stop stop-color="#7000FF"/>
<stop offset="1" stop-color="#3688C9"/>
<stop offset="1" stop-color="#1B5D92"/>
</linearGradient>
<linearGradient id="paint15_linear_0_1" x1="329.428" y1="-8.03518" x2="1713.79" y2="803.572" gradientUnits="userSpaceOnUse">
<stop stop-color="#7000FF"/>
<stop offset="1" stop-color="#3688C9"/>
<stop offset="1" stop-color="#1B5D92"/>
</linearGradient>
<linearGradient id="paint16_linear_0_1" x1="361.755" y1="-35.8174" x2="1693.63" y2="841.781" gradientUnits="userSpaceOnUse">
<stop stop-color="#7000FF"/>
<stop offset="1" stop-color="#3688C9"/>
<stop offset="1" stop-color="#1B5D92"/>
</linearGradient>
<linearGradient id="paint17_linear_0_1" x1="395.195" y1="-60.5722" x2="1671.48" y2="879.761" gradientUnits="userSpaceOnUse">
<stop stop-color="#7000FF"/>
<stop offset="1" stop-color="#3688C9"/>
<stop offset="1" stop-color="#1B5D92"/>
</linearGradient>
<linearGradient id="paint18_linear_0_1" x1="429.582" y1="-82.2667" x2="1647.39" y2="917.404" gradientUnits="userSpaceOnUse">
<stop stop-color="#7000FF"/>
<stop offset="1" stop-color="#3688C9"/>
<stop offset="1" stop-color="#1B5D92"/>
</linearGradient>
<linearGradient id="paint19_linear_0_1" x1="464.746" y1="-100.877" x2="1621.39" y2="954.604" gradientUnits="userSpaceOnUse">
<stop stop-color="#7000FF"/>
<stop offset="1" stop-color="#3688C9"/>
<stop offset="1" stop-color="#1B5D92"/>
</linearGradient>
<linearGradient id="paint20_linear_0_1" x1="500.52" y1="-116.388" x2="1593.51" y2="991.258" gradientUnits="userSpaceOnUse">
<stop stop-color="#7000FF"/>
<stop offset="1" stop-color="#3688C9"/>
<stop offset="1" stop-color="#1B5D92"/>
</linearGradient>
<linearGradient id="paint21_linear_0_1" x1="536.736" y1="-128.794" x2="1563.79" y2="1027.27" gradientUnits="userSpaceOnUse">
<stop stop-color="#7000FF"/>
<stop offset="1" stop-color="#3688C9"/>
<stop offset="1" stop-color="#1B5D92"/>
</linearGradient>
<linearGradient id="paint22_linear_0_1" x1="573.228" y1="-138.098" x2="1532.3" y2="1062.53" gradientUnits="userSpaceOnUse">
<stop stop-color="#7000FF"/>
<stop offset="1" stop-color="#3688C9"/>
<stop offset="1" stop-color="#1B5D92"/>
</linearGradient>
<linearGradient id="paint23_linear_0_1" x1="609.832" y1="-144.312" x2="1499.09" y2="1096.95" gradientUnits="userSpaceOnUse">
<stop stop-color="#7000FF"/>
<stop offset="1" stop-color="#3688C9"/>
<stop offset="1" stop-color="#1B5D92"/>
</linearGradient>
<linearGradient id="paint24_linear_0_1" x1="646.383" y1="-147.457" x2="1464.22" y2="1130.45" gradientUnits="userSpaceOnUse">
<stop stop-color="#7000FF"/>
<stop offset="1" stop-color="#3688C9"/>
<stop offset="1" stop-color="#1B5D92"/>
</linearGradient>
<linearGradient id="paint25_linear_0_1" x1="682.723" y1="-147.563" x2="1427.74" y2="1162.94" gradientUnits="userSpaceOnUse">
<stop stop-color="#7000FF"/>
<stop offset="1" stop-color="#3688C9"/>
<stop offset="1" stop-color="#1B5D92"/>
</linearGradient>
<linearGradient id="paint26_linear_0_1" x1="718.694" y1="-144.666" x2="1389.75" y2="1194.33" gradientUnits="userSpaceOnUse">
<stop stop-color="#7000FF"/>
<stop offset="1" stop-color="#3688C9"/>
<stop offset="1" stop-color="#1B5D92"/>
</linearGradient>
<linearGradient id="paint27_linear_0_1" x1="754.141" y1="-138.813" x2="1350.3" y2="1224.55" gradientUnits="userSpaceOnUse">
<stop stop-color="#7000FF"/>
<stop offset="1" stop-color="#3688C9"/>
<stop offset="1" stop-color="#1B5D92"/>
</linearGradient>
<linearGradient id="paint28_linear_0_1" x1="788.915" y1="-130.057" x2="1309.47" y2="1253.53" gradientUnits="userSpaceOnUse">
<stop stop-color="#7000FF"/>
<stop offset="1" stop-color="#3688C9"/>
<stop offset="1" stop-color="#1B5D92"/>
</linearGradient>
<linearGradient id="paint29_linear_0_1" x1="822.869" y1="-118.458" x2="1267.36" y2="1281.19" gradientUnits="userSpaceOnUse">
<stop stop-color="#7000FF"/>
<stop offset="1" stop-color="#3688C9"/>
<stop offset="1" stop-color="#1B5D92"/>
</linearGradient>
<linearGradient id="paint30_linear_0_1" x1="855.861" y1="-104.086" x2="1224.03" y2="1307.48" gradientUnits="userSpaceOnUse">
<stop stop-color="#7000FF"/>
<stop offset="1" stop-color="#3688C9"/>
<stop offset="1" stop-color="#1B5D92"/>
</linearGradient>
<linearGradient id="paint31_linear_0_1" x1="887.756" y1="-87.0146" x2="1179.58" y2="1332.35" gradientUnits="userSpaceOnUse">
<stop stop-color="#7000FF"/>
<stop offset="1" stop-color="#3688C9"/>
<stop offset="1" stop-color="#1B5D92"/>
</linearGradient>
<linearGradient id="paint32_linear_0_1" x1="918.421" y1="-67.3271" x2="1134.1" y2="1355.73" gradientUnits="userSpaceOnUse">
<stop stop-color="#7000FF"/>
<stop offset="1" stop-color="#3688C9"/>
<stop offset="1" stop-color="#1B5D92"/>
</linearGradient>
<linearGradient id="paint33_linear_0_1" x1="947.73" y1="-45.111" x2="1087.69" y2="1377.59" gradientUnits="userSpaceOnUse">
<stop stop-color="#7000FF"/>
<stop offset="1" stop-color="#3688C9"/>
<stop offset="1" stop-color="#1B5D92"/>
</linearGradient>
<linearGradient id="paint34_linear_0_1" x1="975.564" y1="-20.461" x2="1040.42" y2="1397.88" gradientUnits="userSpaceOnUse">
<stop stop-color="#7000FF"/>
<stop offset="1" stop-color="#3688C9"/>
<stop offset="1" stop-color="#1B5D92"/>
</linearGradient>
<linearGradient id="paint35_linear_0_1" x1="1001.81" y1="6.5238" x2="992.414" y2="1416.57" gradientUnits="userSpaceOnUse">
<stop stop-color="#7000FF"/>
<stop offset="1" stop-color="#3688C9"/>
<stop offset="1" stop-color="#1B5D92"/>
</linearGradient>
<linearGradient id="paint36_linear_0_1" x1="1026.35" y1="35.7378" x2="943.753" y2="1433.62" gradientUnits="userSpaceOnUse">
<stop stop-color="#7000FF"/>
<stop offset="1" stop-color="#3688C9"/>
<stop offset="1" stop-color="#1B5D92"/>
</linearGradient>
<linearGradient id="paint37_linear_0_1" x1="1049.1" y1="67.0715" x2="894.539" y2="1449.03" gradientUnits="userSpaceOnUse">
<stop stop-color="#7000FF"/>
<stop offset="1" stop-color="#3688C9"/>
<stop offset="1" stop-color="#1B5D92"/>
</linearGradient>
<linearGradient id="paint38_linear_0_1" x1="1069.96" y1="100.41" x2="844.87" y2="1462.76" gradientUnits="userSpaceOnUse">
<stop stop-color="#7000FF"/>
<stop offset="1" stop-color="#3688C9"/>
<stop offset="1" stop-color="#1B5D92"/>
</linearGradient>
<linearGradient id="paint39_linear_0_1" x1="1088.83" y1="135.637" x2="794.846" y2="1474.81" gradientUnits="userSpaceOnUse">
<stop stop-color="#7000FF"/>
<stop offset="1" stop-color="#3688C9"/>
<stop offset="1" stop-color="#1B5D92"/>
</linearGradient>
<linearGradient id="paint40_linear_0_1" x1="1105.65" y1="172.628" x2="744.565" y2="1485.17" gradientUnits="userSpaceOnUse">
<stop stop-color="#7000FF"/>
<stop offset="1" stop-color="#3688C9"/>
<stop offset="1" stop-color="#1B5D92"/>
</linearGradient>
<linearGradient id="paint41_linear_0_1" x1="1120.33" y1="211.26" x2="694.128" y2="1493.84" gradientUnits="userSpaceOnUse">
<stop stop-color="#7000FF"/>
<stop offset="1" stop-color="#3688C9"/>
<stop offset="1" stop-color="#1B5D92"/>
</linearGradient>
<linearGradient id="paint42_linear_0_1" x1="1132.82" y1="251.404" x2="643.63" y2="1500.83" gradientUnits="userSpaceOnUse">
<stop stop-color="#7000FF"/>
<stop offset="1" stop-color="#3688C9"/>
<stop offset="1" stop-color="#1B5D92"/>
</linearGradient>
<linearGradient id="paint43_linear_0_1" x1="1143.04" y1="292.93" x2="593.169" y2="1506.15" gradientUnits="userSpaceOnUse">
<stop stop-color="#7000FF"/>
<stop offset="1" stop-color="#3688C9"/>
<stop offset="1" stop-color="#1B5D92"/>
</linearGradient>
<linearGradient id="paint44_linear_0_1" x1="1150.96" y1="335.707" x2="542.84" y2="1509.81" gradientUnits="userSpaceOnUse">
<stop stop-color="#7000FF"/>
<stop offset="1" stop-color="#3688C9"/>
<stop offset="1" stop-color="#1B5D92"/>
</linearGradient>
<linearGradient id="paint45_linear_0_1" x1="1156.53" y1="379.601" x2="492.739" y2="1511.84" gradientUnits="userSpaceOnUse">
<stop stop-color="#7000FF"/>
<stop offset="1" stop-color="#3688C9"/>
<stop offset="1" stop-color="#1B5D92"/>
</linearGradient>
<linearGradient id="paint46_linear_0_1" x1="1159.72" y1="424.477" x2="442.955" y2="1512.26" gradientUnits="userSpaceOnUse">
<stop stop-color="#7000FF"/>
<stop offset="1" stop-color="#3688C9"/>
<stop offset="1" stop-color="#1B5D92"/>
</linearGradient>
<linearGradient id="paint47_linear_0_1" x1="1160.49" y1="470.201" x2="393.579" y2="1511.11" gradientUnits="userSpaceOnUse">
<stop stop-color="#7000FF"/>
<stop offset="1" stop-color="#3688C9"/>
<stop offset="1" stop-color="#1B5D92"/>
</linearGradient>
<linearGradient id="paint48_linear_0_1" x1="1158.83" y1="516.636" x2="344.699" y2="1508.42" gradientUnits="userSpaceOnUse">
<stop stop-color="#7000FF"/>
<stop offset="1" stop-color="#3688C9"/>
<stop offset="1" stop-color="#1B5D92"/>
</linearGradient>
<linearGradient id="paint49_linear_0_1" x1="1154.72" y1="563.648" x2="296.397" y2="1504.23" gradientUnits="userSpaceOnUse">
<stop stop-color="#7000FF"/>
<stop offset="1" stop-color="#3688C9"/>
<stop offset="1" stop-color="#1B5D92"/>
</linearGradient>
<linearGradient id="paint50_linear_0_1" x1="1148.16" y1="611.103" x2="248.757" y2="1498.6" gradientUnits="userSpaceOnUse">
<stop stop-color="#7000FF"/>
<stop offset="1" stop-color="#3688C9"/>
<stop offset="1" stop-color="#1B5D92"/>
</linearGradient>
<linearGradient id="paint51_linear_0_1" x1="1139.15" y1="658.867" x2="201.855" y2="1491.57" gradientUnits="userSpaceOnUse">
<stop stop-color="#7000FF"/>
<stop offset="1" stop-color="#3688C9"/>
<stop offset="1" stop-color="#1B5D92"/>
</linearGradient>
<linearGradient id="paint52_linear_0_1" x1="1127.7" y1="706.808" x2="155.766" y2="1483.2" gradientUnits="userSpaceOnUse">
<stop stop-color="#7000FF"/>
<stop offset="1" stop-color="#3688C9"/>
<stop offset="1" stop-color="#1B5D92"/>
</linearGradient>
<linearGradient id="paint53_linear_0_1" x1="1113.83" y1="754.795" x2="110.561" y2="1473.55" gradientUnits="userSpaceOnUse">
<stop stop-color="#7000FF"/>
<stop offset="1" stop-color="#3688C9"/>
<stop offset="1" stop-color="#1B5D92"/>
</linearGradient>
<linearGradient id="paint54_linear_0_1" x1="1097.56" y1="802.701" x2="66.3068" y2="1462.68" gradientUnits="userSpaceOnUse">
<stop stop-color="#7000FF"/>
<stop offset="1" stop-color="#3688C9"/>
<stop offset="1" stop-color="#1B5D92"/>
</linearGradient>
<linearGradient id="paint55_linear_0_1" x1="1078.91" y1="850.401" x2="23.0655" y2="1450.65" gradientUnits="userSpaceOnUse">
<stop stop-color="#7000FF"/>
<stop offset="1" stop-color="#3688C9"/>
<stop offset="1" stop-color="#1B5D92"/>
</linearGradient>
<linearGradient id="paint56_linear_0_1" x1="1057.93" y1="897.77" x2="-19.1045" y2="1437.54" gradientUnits="userSpaceOnUse">
<stop stop-color="#7000FF"/>
<stop offset="1" stop-color="#3688C9"/>
<stop offset="1" stop-color="#1B5D92"/>
</linearGradient>
<linearGradient id="paint57_linear_0_1" x1="1034.66" y1="944.691" x2="-60.1493" y2="1423.42" gradientUnits="userSpaceOnUse">
<stop stop-color="#7000FF"/>
<stop offset="1" stop-color="#3688C9"/>
<stop offset="1" stop-color="#1B5D92"/>
</linearGradient>
<linearGradient id="paint58_linear_0_1" x1="1009.14" y1="991.047" x2="-100.02" y2="1408.36" gradientUnits="userSpaceOnUse">
<stop stop-color="#7000FF"/>
<stop offset="1" stop-color="#3688C9"/>
<stop offset="1" stop-color="#1B5D92"/>
</linearGradient>
<linearGradient id="paint59_linear_0_1" x1="981.431" y1="1036.73" x2="-138.671" y2="1392.44" gradientUnits="userSpaceOnUse">
<stop stop-color="#7000FF"/>
<stop offset="1" stop-color="#3688C9"/>
<stop offset="1" stop-color="#1B5D92"/>
</linearGradient>
<linearGradient id="paint60_linear_0_1" x1="951.593" y1="1081.62" x2="-176.064" y2="1375.74" gradientUnits="userSpaceOnUse">
<stop stop-color="#7000FF"/>
<stop offset="1" stop-color="#3688C9"/>
<stop offset="1" stop-color="#1B5D92"/>
</linearGradient>
<linearGradient id="paint61_linear_0_1" x1="919.69" y1="1125.63" x2="-212.165" y2="1358.34" gradientUnits="userSpaceOnUse">
<stop stop-color="#7000FF"/>
<stop offset="1" stop-color="#3688C9"/>
<stop offset="1" stop-color="#1B5D92"/>
</linearGradient>
<linearGradient id="paint62_linear_0_1" x1="885.791" y1="1168.64" x2="-246.942" y2="1340.32" gradientUnits="userSpaceOnUse">
<stop stop-color="#7000FF"/>
<stop offset="1" stop-color="#3688C9"/>
<stop offset="1" stop-color="#1B5D92"/>
</linearGradient>
<linearGradient id="paint63_linear_0_1" x1="849.971" y1="1210.58" x2="-280.372" y2="1321.77" gradientUnits="userSpaceOnUse">
<stop stop-color="#7000FF"/>
<stop offset="1" stop-color="#3688C9"/>
<stop offset="1" stop-color="#1B5D92"/>
</linearGradient>
<linearGradient id="paint64_linear_0_1" x1="812.31" y1="1251.34" x2="-312.436" y2="1302.78" gradientUnits="userSpaceOnUse">
<stop stop-color="#7000FF"/>
<stop offset="1" stop-color="#3688C9"/>
<stop offset="1" stop-color="#1B5D92"/>
</linearGradient>
<linearGradient id="paint65_linear_0_1" x1="772.889" y1="1290.85" x2="-343.119" y2="1283.42" gradientUnits="userSpaceOnUse">
<stop stop-color="#7000FF"/>
<stop offset="1" stop-color="#3688C9"/>
<stop offset="1" stop-color="#1B5D92"/>
</linearGradient>
<linearGradient id="paint66_linear_0_1" x1="731.796" y1="1329.03" x2="-372.413" y2="1263.78" gradientUnits="userSpaceOnUse">
<stop stop-color="#7000FF"/>
<stop offset="1" stop-color="#3688C9"/>
<stop offset="1" stop-color="#1B5D92"/>
</linearGradient>
<linearGradient id="paint67_linear_0_1" x1="689.12" y1="1365.79" x2="-400.311" y2="1243.95" gradientUnits="userSpaceOnUse">
<stop stop-color="#7000FF"/>
<stop offset="1" stop-color="#3688C9"/>
<stop offset="1" stop-color="#1B5D92"/>
</linearGradient>
<linearGradient id="paint68_linear_0_1" x1="644.955" y1="1401.09" x2="-426.817" y2="1224.01" gradientUnits="userSpaceOnUse">
<stop stop-color="#7000FF"/>
<stop offset="1" stop-color="#3688C9"/>
<stop offset="1" stop-color="#1B5D92"/>
</linearGradient>
<radialGradient id="paint69_radial_0_1" cx="0" cy="0" r="1" gradientUnits="userSpaceOnUse" gradientTransform="translate(-2.82693e-05 1005) scale(1247.59 1231.33)">
<stop stop-color="#7D2AE7"/>
<stop offset="1" stop-color="#3688C9"/>
<stop offset="1" stop-color="#3688C9"/>
</radialGradient>
<radialGradient id="paint70_radial_0_1" cx="0" cy="0" r="1" gradientUnits="userSpaceOnUse" gradientTransform="translate(-1.61459e-05 574) scale(712.552 703.268)">
<stop stop-color="#7D2AE7"/>
<stop offset="1" stop-color="#3688C9"/>
<stop offset="1" stop-color="#3688C9"/>
</radialGradient>
</defs>
</svg>
